<svg width="402" height="874" viewBox="0 0 402 874" fill="none" xmlns="http://www.w3.org/2000/svg">
<g clip-path="url(#clip0_2049_293)">
<rect width="402" height="874" fill="black"/>
<path d="M19.517 51V33.5455H31.2784V36.5881H23.2074V40.7472H30.6733V43.7898H23.2074V47.9574H31.3125V51H19.517ZM46.3487 37.9091L41.772 51H37.6811L33.1044 37.9091H36.9396L39.6584 47.2756H39.7947L42.505 37.9091H46.3487ZM53.7507 51.2557C52.4041 51.2557 51.245 50.983 50.2734 50.4375C49.3075 49.8864 48.5632 49.108 48.0405 48.1023C47.5178 47.0909 47.2564 45.8949 47.2564 44.5142C47.2564 43.1676 47.5178 41.9858 48.0405 40.9688C48.5632 39.9517 49.299 39.1591 50.2479 38.5909C51.2024 38.0227 52.3217 37.7386 53.6058 37.7386C54.4695 37.7386 55.2734 37.8778 56.0178 38.1562C56.7678 38.429 57.4212 38.8409 57.978 39.392C58.5405 39.9432 58.978 40.6364 59.2905 41.4716C59.603 42.3011 59.7592 43.2727 59.7592 44.3864V45.3835H48.7053V43.1335H56.3416C56.3416 42.6108 56.228 42.1477 56.0007 41.7443C55.7734 41.3409 55.4581 41.0256 55.0547 40.7983C54.657 40.5653 54.1939 40.4489 53.6655 40.4489C53.1143 40.4489 52.6257 40.5767 52.1996 40.8324C51.7791 41.0824 51.4496 41.4205 51.2109 41.8466C50.9723 42.267 50.8501 42.7358 50.8445 43.2528V45.392C50.8445 46.0398 50.9638 46.5994 51.2024 47.071C51.4467 47.5426 51.7905 47.9062 52.2337 48.1619C52.6768 48.4176 53.2024 48.5455 53.8104 48.5455C54.2138 48.5455 54.5831 48.4886 54.9183 48.375C55.2536 48.2614 55.5405 48.0909 55.7791 47.8636C56.0178 47.6364 56.1996 47.358 56.3246 47.0284L59.6825 47.25C59.5121 48.0568 59.1626 48.7614 58.6342 49.3636C58.1115 49.9602 57.4354 50.4261 56.6058 50.7614C55.782 51.0909 54.8303 51.2557 53.7507 51.2557ZM65.7592 43.4318V51H62.1286V37.9091H65.5888V40.2188H65.7422C66.032 39.4574 66.5178 38.8551 67.1996 38.4119C67.8814 37.9631 68.7081 37.7386 69.6797 37.7386C70.5888 37.7386 71.3814 37.9375 72.0575 38.3352C72.7337 38.733 73.2592 39.3011 73.6342 40.0398C74.0092 40.7727 74.1967 41.6477 74.1967 42.6648V51H70.5661V43.3125C70.5717 42.5114 70.3672 41.8864 69.9524 41.4375C69.5376 40.983 68.9666 40.7557 68.2393 40.7557C67.7507 40.7557 67.3189 40.8608 66.9439 41.071C66.5746 41.2812 66.2848 41.5881 66.0746 41.9915C65.87 42.3892 65.7649 42.8693 65.7592 43.4318ZM84.0213 37.9091V40.6364H76.1378V37.9091H84.0213ZM77.9276 34.7727H81.5582V46.9773C81.5582 47.3125 81.6094 47.5739 81.7116 47.7614C81.8139 47.9432 81.956 48.071 82.1378 48.1449C82.3253 48.2187 82.5412 48.2557 82.7855 48.2557C82.956 48.2557 83.1264 48.2415 83.2969 48.2131C83.4673 48.179 83.598 48.1534 83.6889 48.1364L84.2599 50.8381C84.0781 50.8949 83.8224 50.9602 83.4929 51.0341C83.1634 51.1136 82.7628 51.1619 82.2912 51.179C81.4162 51.2131 80.6491 51.0966 79.9901 50.8295C79.3366 50.5625 78.8281 50.1477 78.4645 49.5852C78.1009 49.0227 77.9219 48.3125 77.9276 47.4545V34.7727ZM92.0092 51V33.5455H95.6996V47.9574H103.183V51H92.0092ZM111.473 51.2557C110.149 51.2557 109.004 50.9744 108.038 50.4119C107.078 49.8437 106.337 49.054 105.814 48.0426C105.291 47.0256 105.03 45.8466 105.03 44.5057C105.03 43.1534 105.291 41.9716 105.814 40.9602C106.337 39.9432 107.078 39.1534 108.038 38.5909C109.004 38.0227 110.149 37.7386 111.473 37.7386C112.797 37.7386 113.939 38.0227 114.899 38.5909C115.865 39.1534 116.609 39.9432 117.132 40.9602C117.655 41.9716 117.916 43.1534 117.916 44.5057C117.916 45.8466 117.655 47.0256 117.132 48.0426C116.609 49.054 115.865 49.8437 114.899 50.4119C113.939 50.9744 112.797 51.2557 111.473 51.2557ZM111.49 48.4432C112.092 48.4432 112.595 48.2727 112.999 47.9318C113.402 47.5852 113.706 47.1136 113.911 46.517C114.121 45.9205 114.226 45.2415 114.226 44.4801C114.226 43.7188 114.121 43.0398 113.911 42.4432C113.706 41.8466 113.402 41.375 112.999 41.0284C112.595 40.6818 112.092 40.5085 111.49 40.5085C110.882 40.5085 110.371 40.6818 109.956 41.0284C109.547 41.375 109.237 41.8466 109.027 42.4432C108.822 43.0398 108.72 43.7188 108.72 44.4801C108.72 45.2415 108.822 45.9205 109.027 46.517C109.237 47.1136 109.547 47.5852 109.956 47.9318C110.371 48.2727 110.882 48.4432 111.49 48.4432ZM127.24 37.9091V40.6364H119.357V37.9091H127.24ZM121.146 34.7727H124.777V46.9773C124.777 47.3125 124.828 47.5739 124.93 47.7614C125.033 47.9432 125.175 48.071 125.357 48.1449C125.544 48.2187 125.76 48.2557 126.004 48.2557C126.175 48.2557 126.345 48.2415 126.516 48.2131C126.686 48.179 126.817 48.1534 126.908 48.1364L127.479 50.8381C127.297 50.8949 127.041 50.9602 126.712 51.0341C126.382 51.1136 125.982 51.1619 125.51 51.179C124.635 51.2131 123.868 51.0966 123.209 50.8295C122.555 50.5625 122.047 50.1477 121.683 49.5852C121.32 49.0227 121.141 48.3125 121.146 47.4545V34.7727ZM136.568 37.9091V40.6364H128.685V37.9091H136.568ZM130.474 34.7727H134.105V46.9773C134.105 47.3125 134.156 47.5739 134.259 47.7614C134.361 47.9432 134.503 48.071 134.685 48.1449C134.872 48.2187 135.088 48.2557 135.332 48.2557C135.503 48.2557 135.673 48.2415 135.844 48.2131C136.014 48.179 136.145 48.1534 136.236 48.1364L136.807 50.8381C136.625 50.8949 136.369 50.9602 136.04 51.0341C135.71 51.1136 135.31 51.1619 134.838 51.179C133.963 51.2131 133.196 51.0966 132.537 50.8295C131.884 50.5625 131.375 50.1477 131.011 49.5852C130.648 49.0227 130.469 48.3125 130.474 47.4545V34.7727ZM144.759 51.2557C143.412 51.2557 142.253 50.983 141.281 50.4375C140.315 49.8864 139.571 49.108 139.048 48.1023C138.526 47.0909 138.264 45.8949 138.264 44.5142C138.264 43.1676 138.526 41.9858 139.048 40.9688C139.571 39.9517 140.307 39.1591 141.256 38.5909C142.21 38.0227 143.33 37.7386 144.614 37.7386C145.477 37.7386 146.281 37.8778 147.026 38.1562C147.776 38.429 148.429 38.8409 148.986 39.392C149.548 39.9432 149.986 40.6364 150.298 41.4716C150.611 42.3011 150.767 43.2727 150.767 44.3864V45.3835H139.713V43.1335H147.349C147.349 42.6108 147.236 42.1477 147.009 41.7443C146.781 41.3409 146.466 41.0256 146.062 40.7983C145.665 40.5653 145.202 40.4489 144.673 40.4489C144.122 40.4489 143.634 40.5767 143.207 40.8324C142.787 41.0824 142.457 41.4205 142.219 41.8466C141.98 42.267 141.858 42.7358 141.852 43.2528V45.392C141.852 46.0398 141.972 46.5994 142.21 47.071C142.455 47.5426 142.798 47.9062 143.241 48.1619C143.685 48.4176 144.21 48.5455 144.818 48.5455C145.222 48.5455 145.591 48.4886 145.926 48.375C146.261 48.2614 146.548 48.0909 146.787 47.8636C147.026 47.6364 147.207 47.358 147.332 47.0284L150.69 47.25C150.52 48.0568 150.17 48.7614 149.642 49.3636C149.119 49.9602 148.443 50.4261 147.614 50.7614C146.79 51.0909 145.838 51.2557 144.759 51.2557ZM153.136 51V37.9091H156.656V40.1932H156.793C157.031 39.3807 157.432 38.767 157.994 38.3523C158.557 37.9318 159.205 37.7216 159.938 37.7216C160.119 37.7216 160.315 37.733 160.526 37.7557C160.736 37.7784 160.92 37.8097 161.08 37.8494V41.071C160.909 41.0199 160.673 40.9744 160.372 40.9347C160.071 40.8949 159.795 40.875 159.545 40.875C159.011 40.875 158.534 40.9915 158.114 41.2244C157.699 41.4517 157.369 41.7699 157.125 42.179C156.886 42.5881 156.767 43.0597 156.767 43.5938V51H153.136ZM165.597 55.9091C165.136 55.9091 164.705 55.8722 164.301 55.7983C163.903 55.7301 163.574 55.642 163.312 55.5341L164.131 52.8239C164.557 52.9545 164.94 53.0256 165.281 53.0369C165.628 53.0483 165.926 52.9688 166.176 52.7983C166.432 52.6278 166.639 52.3381 166.798 51.929L167.011 51.375L162.315 37.9091H166.134L168.844 47.5227H168.98L171.716 37.9091H175.56L170.472 52.4148C170.227 53.1193 169.895 53.733 169.474 54.2557C169.06 54.7841 168.534 55.1903 167.898 55.4744C167.261 55.7642 166.494 55.9091 165.597 55.9091Z" fill="white"/>
<path d="M356 50.3543C357.114 50.3543 358.182 49.8515 358.97 48.9566C359.758 48.0617 360.2 46.848 360.2 45.5824C360.2 44.3168 359.758 43.1031 358.97 42.2082C358.182 41.3133 357.114 40.8105 356 40.8105C354.886 40.8105 353.818 41.3133 353.03 42.2082C352.243 43.1031 351.8 44.3168 351.8 45.5824C351.8 46.848 352.243 48.0617 353.03 48.9566C353.818 49.8515 354.886 50.3543 356 50.3543Z" stroke="white" stroke-width="1.5" stroke-linecap="round" stroke-linejoin="round"/>
<path d="M366.671 43.029L365.135 38.8139L367.2 36.0383L364.4 32.857L361.971 35.2159L358.181 33.4455L357.309 29.6758H354.573L353.689 33.4949L349.986 35.2684L347.6 32.857L344.8 36.0383L346.834 38.8839L345.322 43.1101L342 43.9913V47.1726L345.361 48.216L346.922 52.4216L344.8 55.1257L347.6 58.3069L350.107 55.9846L353.756 57.6897L354.6 61.4881H357.4L358.246 57.6913L361.957 55.9448C362.576 56.4491 364.4 58.3069 364.4 58.3069L367.2 55.1257L365.122 52.3421L366.66 48.1238L370 47.1376V43.9913L366.671 43.029Z" stroke="white" stroke-width="1.5" stroke-linecap="round" stroke-linejoin="round"/>
<line x1="-14" y1="89.5" x2="416" y2="89.5" stroke="#D6D6D6"/>
<path d="M19.5625 74H18.4489L22.6818 62.3636H23.8182L28.0511 74H26.9375L23.2898 63.7443H23.2102L19.5625 74ZM20.3636 69.5398H26.1364V70.4943H20.3636V69.5398ZM32.9773 74.1818C32.2614 74.1818 31.6345 73.9924 31.0966 73.6136C30.5587 73.2348 30.1383 72.7064 29.8352 72.0284C29.536 71.3504 29.3864 70.5606 29.3864 69.6591C29.3864 68.7614 29.536 67.9754 29.8352 67.3011C30.1383 66.6231 30.5606 66.0966 31.1023 65.7216C31.6439 65.3428 32.2746 65.1534 32.9943 65.1534C33.5246 65.1534 33.9659 65.2481 34.3182 65.4375C34.6705 65.6231 34.9527 65.8542 35.1648 66.1307C35.3769 66.4072 35.5417 66.6761 35.6591 66.9375H35.75V62.3636H36.767V74H35.7784V72.3807H35.6591C35.5417 72.6458 35.375 72.9186 35.1591 73.1989C34.9432 73.4754 34.6572 73.7083 34.3011 73.8977C33.9489 74.0871 33.5076 74.1818 32.9773 74.1818ZM33.0966 73.2557C33.661 73.2557 34.142 73.1023 34.5398 72.7955C34.9375 72.4848 35.2405 72.0587 35.4489 71.517C35.661 70.9716 35.767 70.3466 35.767 69.642C35.767 68.9451 35.6629 68.3295 35.4545 67.7955C35.2462 67.2576 34.9432 66.8371 34.5455 66.5341C34.1477 66.2273 33.6648 66.0739 33.0966 66.0739C32.5133 66.0739 32.0208 66.233 31.6193 66.5511C31.2216 66.8655 30.9186 67.2917 30.7102 67.8295C30.5057 68.3674 30.4034 68.9716 30.4034 69.642C30.4034 70.3201 30.5076 70.9318 30.7159 71.4773C30.9242 72.0227 31.2273 72.4564 31.625 72.7784C32.0265 73.0966 32.517 73.2557 33.0966 73.2557ZM39.6477 74V65.2727H40.6307V66.6136H40.7216C40.8958 66.1629 41.1856 65.8087 41.5909 65.5511C42 65.2898 42.4905 65.1591 43.0625 65.1591C43.6648 65.1591 44.1591 65.3011 44.5455 65.5852C44.9356 65.8655 45.2273 66.2519 45.4205 66.7443H45.4943C45.6913 66.2595 46.0114 65.875 46.4545 65.5909C46.9015 65.303 47.4432 65.1591 48.0795 65.1591C48.8902 65.1591 49.5303 65.4148 50 65.9261C50.4697 66.4337 50.7045 67.1761 50.7045 68.1534V74H49.6932V68.1534C49.6932 67.464 49.517 66.947 49.1648 66.6023C48.8125 66.2576 48.3485 66.0852 47.7727 66.0852C47.1061 66.0852 46.5928 66.2898 46.233 66.6989C45.8731 67.108 45.6932 67.6269 45.6932 68.2557V74H44.6591V68.0625C44.6591 67.4716 44.4943 66.9943 44.1648 66.6307C43.8352 66.267 43.3712 66.0852 42.7727 66.0852C42.3712 66.0852 42.0095 66.1837 41.6875 66.3807C41.3693 66.5777 41.1174 66.8523 40.9318 67.2045C40.75 67.553 40.6591 67.9545 40.6591 68.4091V74H39.6477ZM53.3935 74V65.2727H54.4105V74H53.3935ZM53.9105 63.7727C53.7022 63.7727 53.5241 63.7027 53.3764 63.5625C53.2287 63.4186 53.1548 63.2462 53.1548 63.0455C53.1548 62.8447 53.2287 62.6742 53.3764 62.5341C53.5241 62.3902 53.7022 62.3182 53.9105 62.3182C54.1188 62.3182 54.2969 62.3902 54.4446 62.5341C54.5923 62.6742 54.6662 62.8447 54.6662 63.0455C54.6662 63.2462 54.5923 63.4186 54.4446 63.5625C54.2969 63.7027 54.1188 63.7727 53.9105 63.7727ZM58.0966 68.5455V74H57.0852V65.2727H58.0682V66.642H58.1591C58.3636 66.1951 58.6818 65.8371 59.1136 65.5682C59.5492 65.2955 60.0871 65.1591 60.7273 65.1591C61.3144 65.1591 61.8295 65.2822 62.2727 65.5284C62.7197 65.7708 63.0663 66.1288 63.3125 66.6023C63.5625 67.0758 63.6875 67.6572 63.6875 68.3466V74H62.6761V68.4091C62.6761 67.6932 62.4754 67.1269 62.0739 66.7102C61.6761 66.2936 61.142 66.0852 60.4716 66.0852C60.0133 66.0852 59.6061 66.1837 59.25 66.3807C58.8939 66.5777 58.6117 66.8617 58.4034 67.233C58.1989 67.6004 58.0966 68.0379 58.0966 68.5455Z" fill="white"/>
<path d="M36 115.051H18M18 115.051L26.5 108M18 115.051L26.5 122.102" stroke="white" stroke-width="1.5" stroke-linecap="round" stroke-linejoin="round"/>
<path d="M42.2784 120V108.364H46.5398C47.3655 108.364 48.0492 108.5 48.5909 108.773C49.1326 109.042 49.5379 109.407 49.8068 109.869C50.0758 110.328 50.2102 110.845 50.2102 111.42C50.2102 111.905 50.1212 112.314 49.9432 112.648C49.7652 112.977 49.5265 113.242 49.2273 113.443C48.9318 113.64 48.6061 113.784 48.25 113.875V113.989C48.6364 114.008 49.0133 114.133 49.3807 114.364C49.7519 114.591 50.0587 114.915 50.3011 115.335C50.5436 115.756 50.6648 116.267 50.6648 116.869C50.6648 117.464 50.5246 117.998 50.2443 118.472C49.9678 118.941 49.5398 119.314 48.9602 119.591C48.3807 119.864 47.6402 120 46.7386 120H42.2784ZM44.0341 118.494H46.5682C47.4091 118.494 48.0114 118.331 48.375 118.006C48.7386 117.68 48.9205 117.273 48.9205 116.784C48.9205 116.417 48.8277 116.08 48.642 115.773C48.4564 115.466 48.1913 115.222 47.8466 115.04C47.5057 114.858 47.1004 114.767 46.6307 114.767H44.0341V118.494ZM44.0341 113.398H46.3864C46.7803 113.398 47.1345 113.322 47.4489 113.17C47.767 113.019 48.0189 112.807 48.2045 112.534C48.3939 112.258 48.4886 111.932 48.4886 111.557C48.4886 111.076 48.3201 110.672 47.983 110.347C47.6458 110.021 47.1288 109.858 46.4318 109.858H44.0341V113.398ZM55.1506 120.193C54.5975 120.193 54.0975 120.091 53.6506 119.886C53.2036 119.678 52.8494 119.377 52.5881 118.983C52.3305 118.589 52.2017 118.106 52.2017 117.534C52.2017 117.042 52.2964 116.636 52.4858 116.318C52.6752 116 52.9309 115.748 53.2528 115.562C53.5748 115.377 53.9347 115.237 54.3324 115.142C54.7301 115.047 55.1354 114.975 55.5483 114.926C56.071 114.866 56.4953 114.816 56.821 114.778C57.1468 114.737 57.3835 114.67 57.5312 114.58C57.679 114.489 57.7528 114.341 57.7528 114.136V114.097C57.7528 113.6 57.6127 113.216 57.3324 112.943C57.0559 112.67 56.643 112.534 56.0938 112.534C55.5218 112.534 55.071 112.661 54.7415 112.915C54.4157 113.165 54.1903 113.443 54.0653 113.75L52.4688 113.386C52.6581 112.856 52.9347 112.428 53.2983 112.102C53.6657 111.773 54.0881 111.534 54.5653 111.386C55.0426 111.235 55.5445 111.159 56.071 111.159C56.4195 111.159 56.7888 111.201 57.179 111.284C57.5729 111.364 57.9403 111.511 58.2812 111.727C58.6259 111.943 58.9081 112.252 59.1278 112.653C59.3475 113.051 59.4574 113.568 59.4574 114.205V120H57.7983V118.807H57.7301C57.6203 119.027 57.4555 119.242 57.2358 119.455C57.0161 119.667 56.7339 119.843 56.3892 119.983C56.0445 120.123 55.6316 120.193 55.1506 120.193ZM55.5199 118.83C55.9896 118.83 56.3911 118.737 56.7244 118.551C57.0616 118.366 57.3172 118.123 57.4915 117.824C57.6695 117.521 57.7585 117.197 57.7585 116.852V115.727C57.6979 115.788 57.5805 115.845 57.4062 115.898C57.2358 115.947 57.0407 115.991 56.821 116.028C56.6013 116.062 56.3873 116.095 56.179 116.125C55.9706 116.152 55.7964 116.174 55.6562 116.193C55.3267 116.235 55.0256 116.305 54.7528 116.403C54.4839 116.502 54.268 116.644 54.1051 116.83C53.946 117.011 53.8665 117.254 53.8665 117.557C53.8665 117.977 54.0218 118.295 54.3324 118.511C54.643 118.723 55.0388 118.83 55.5199 118.83ZM65.3963 120.176C64.5516 120.176 63.8243 119.985 63.2145 119.602C62.6084 119.216 62.1425 118.684 61.8168 118.006C61.491 117.328 61.3281 116.551 61.3281 115.676C61.3281 114.79 61.4948 114.008 61.8281 113.33C62.1615 112.648 62.6312 112.116 63.2372 111.733C63.8433 111.35 64.5573 111.159 65.3793 111.159C66.0421 111.159 66.633 111.282 67.152 111.528C67.6709 111.771 68.0895 112.112 68.4077 112.551C68.7296 112.991 68.9209 113.504 68.9815 114.091H67.3281C67.2372 113.682 67.0289 113.33 66.7031 113.034C66.3812 112.739 65.9493 112.591 65.4077 112.591C64.9342 112.591 64.5194 112.716 64.1634 112.966C63.8111 113.212 63.5365 113.564 63.3395 114.023C63.1425 114.477 63.044 115.015 63.044 115.636C63.044 116.273 63.1406 116.822 63.3338 117.284C63.527 117.746 63.7997 118.104 64.152 118.358C64.508 118.612 64.9266 118.739 65.4077 118.739C65.7296 118.739 66.0213 118.68 66.2827 118.562C66.5478 118.441 66.7694 118.269 66.9474 118.045C67.1293 117.822 67.2562 117.553 67.3281 117.239H68.9815C68.9209 117.803 68.7372 118.307 68.4304 118.75C68.1236 119.193 67.7126 119.542 67.1974 119.795C66.6861 120.049 66.0857 120.176 65.3963 120.176ZM72.3608 117.04L72.3494 114.966H72.6449L76.1222 111.273H78.1562L74.1903 115.477H73.9233L72.3608 117.04ZM70.7983 120V108.364H72.4972V120H70.7983ZM76.3097 120L73.1847 115.852L74.3551 114.665L78.3949 120H76.3097ZM88.0128 111.273V112.636H83.2457V111.273H88.0128ZM84.5241 109.182H86.223V117.438C86.223 117.767 86.2723 118.015 86.3707 118.182C86.4692 118.345 86.5961 118.456 86.7514 118.517C86.9105 118.574 87.0829 118.602 87.2685 118.602C87.4048 118.602 87.5241 118.593 87.6264 118.574C87.7287 118.555 87.8082 118.54 87.8651 118.528L88.1719 119.932C88.0734 119.97 87.9332 120.008 87.7514 120.045C87.5696 120.087 87.3423 120.11 87.0696 120.114C86.6226 120.121 86.206 120.042 85.8196 119.875C85.4332 119.708 85.1207 119.451 84.8821 119.102C84.6435 118.754 84.5241 118.316 84.5241 117.79V109.182ZM93.4744 120.176C92.6563 120.176 91.9422 119.989 91.3324 119.614C90.7225 119.239 90.2491 118.714 89.9119 118.04C89.5748 117.366 89.4062 116.578 89.4062 115.676C89.4062 114.771 89.5748 113.979 89.9119 113.301C90.2491 112.623 90.7225 112.097 91.3324 111.722C91.9422 111.347 92.6563 111.159 93.4744 111.159C94.2926 111.159 95.0066 111.347 95.6165 111.722C96.2263 112.097 96.6998 112.623 97.0369 113.301C97.3741 113.979 97.5426 114.771 97.5426 115.676C97.5426 116.578 97.3741 117.366 97.0369 118.04C96.6998 118.714 96.2263 119.239 95.6165 119.614C95.0066 119.989 94.2926 120.176 93.4744 120.176ZM93.4801 118.75C94.0104 118.75 94.4498 118.61 94.7983 118.33C95.1468 118.049 95.4044 117.676 95.571 117.21C95.7415 116.744 95.8267 116.231 95.8267 115.67C95.8267 115.114 95.7415 114.602 95.571 114.136C95.4044 113.667 95.1468 113.29 94.7983 113.006C94.4498 112.722 94.0104 112.58 93.4801 112.58C92.946 112.58 92.5028 112.722 92.1506 113.006C91.8021 113.29 91.5426 113.667 91.3722 114.136C91.2055 114.602 91.1222 115.114 91.1222 115.67C91.1222 116.231 91.2055 116.744 91.3722 117.21C91.5426 117.676 91.8021 118.049 92.1506 118.33C92.5028 118.61 92.946 118.75 93.4801 118.75ZM103.81 120V108.364H105.565V113.42H111.366V108.364H113.128V120H111.366V114.926H105.565V120H103.81ZM119.224 120.176C118.406 120.176 117.692 119.989 117.082 119.614C116.473 119.239 115.999 118.714 115.662 118.04C115.325 117.366 115.156 116.578 115.156 115.676C115.156 114.771 115.325 113.979 115.662 113.301C115.999 112.623 116.473 112.097 117.082 111.722C117.692 111.347 118.406 111.159 119.224 111.159C120.043 111.159 120.757 111.347 121.366 111.722C121.976 112.097 122.45 112.623 122.787 113.301C123.124 113.979 123.293 114.771 123.293 115.676C123.293 116.578 123.124 117.366 122.787 118.04C122.45 118.714 121.976 119.239 121.366 119.614C120.757 119.989 120.043 120.176 119.224 120.176ZM119.23 118.75C119.76 118.75 120.2 118.61 120.548 118.33C120.897 118.049 121.154 117.676 121.321 117.21C121.491 116.744 121.577 116.231 121.577 115.67C121.577 115.114 121.491 114.602 121.321 114.136C121.154 113.667 120.897 113.29 120.548 113.006C120.2 112.722 119.76 112.58 119.23 112.58C118.696 112.58 118.253 112.722 117.901 113.006C117.552 113.29 117.293 113.667 117.122 114.136C116.955 114.602 116.872 115.114 116.872 115.67C116.872 116.231 116.955 116.744 117.122 117.21C117.293 117.676 117.552 118.049 117.901 118.33C118.253 118.61 118.696 118.75 119.23 118.75ZM125.189 120V111.273H126.82V112.693H126.928C127.109 112.212 127.407 111.837 127.82 111.568C128.232 111.295 128.727 111.159 129.303 111.159C129.886 111.159 130.375 111.295 130.768 111.568C131.166 111.841 131.46 112.216 131.649 112.693H131.74C131.948 112.227 132.28 111.856 132.734 111.58C133.189 111.299 133.731 111.159 134.359 111.159C135.151 111.159 135.797 111.407 136.297 111.903C136.801 112.4 137.053 113.148 137.053 114.148V120H135.354V114.307C135.354 113.716 135.193 113.288 134.871 113.023C134.549 112.758 134.164 112.625 133.717 112.625C133.164 112.625 132.734 112.795 132.428 113.136C132.121 113.473 131.967 113.907 131.967 114.438V120H130.274V114.199C130.274 113.725 130.126 113.345 129.831 113.057C129.536 112.769 129.151 112.625 128.678 112.625C128.356 112.625 128.058 112.71 127.786 112.881C127.517 113.047 127.299 113.28 127.132 113.58C126.969 113.879 126.888 114.225 126.888 114.619V120H125.189ZM143.091 120.176C142.231 120.176 141.491 119.992 140.869 119.625C140.252 119.254 139.775 118.733 139.438 118.062C139.104 117.388 138.938 116.598 138.938 115.693C138.938 114.799 139.104 114.011 139.438 113.33C139.775 112.648 140.244 112.116 140.847 111.733C141.453 111.35 142.161 111.159 142.972 111.159C143.464 111.159 143.941 111.241 144.403 111.403C144.866 111.566 145.28 111.822 145.648 112.17C146.015 112.519 146.305 112.972 146.517 113.528C146.729 114.081 146.835 114.754 146.835 115.545V116.148H139.898V114.875H145.17C145.17 114.428 145.08 114.032 144.898 113.688C144.716 113.339 144.46 113.064 144.131 112.864C143.805 112.663 143.422 112.562 142.983 112.562C142.506 112.562 142.089 112.68 141.733 112.915C141.381 113.146 141.108 113.449 140.915 113.824C140.725 114.195 140.631 114.598 140.631 115.034V116.028C140.631 116.612 140.733 117.108 140.938 117.517C141.146 117.926 141.436 118.239 141.807 118.455C142.178 118.667 142.612 118.773 143.108 118.773C143.43 118.773 143.723 118.727 143.989 118.636C144.254 118.542 144.483 118.402 144.676 118.216C144.869 118.03 145.017 117.801 145.119 117.528L146.727 117.818C146.598 118.292 146.367 118.706 146.034 119.062C145.705 119.415 145.29 119.689 144.79 119.886C144.294 120.08 143.727 120.176 143.091 120.176Z" fill="white"/>
<path d="M27.532 165.276C27.4562 164.603 27.1437 164.082 26.5945 163.713C26.0452 163.339 25.354 163.152 24.5206 163.152C23.924 163.152 23.4079 163.247 22.9723 163.436C22.5367 163.621 22.1982 163.876 21.9567 164.203C21.72 164.525 21.6016 164.892 21.6016 165.304C21.6016 165.65 21.6821 165.948 21.8431 166.199C22.0088 166.45 22.2242 166.661 22.4894 166.831C22.7593 166.997 23.0481 167.136 23.3558 167.25C23.6636 167.359 23.9595 167.449 24.2436 167.52L25.6641 167.889C26.1281 168.003 26.604 168.157 27.0916 168.351C27.5793 168.545 28.0315 168.801 28.4482 169.118C28.8648 169.435 29.201 169.828 29.4567 170.297C29.7171 170.766 29.8473 171.327 29.8473 171.98C29.8473 172.804 29.6343 173.536 29.2081 174.175C28.7867 174.814 28.1736 175.318 27.3686 175.688C26.5684 176.057 25.6002 176.241 24.4638 176.241C23.3748 176.241 22.4326 176.069 21.6371 175.723C20.8416 175.377 20.219 174.887 19.7692 174.253C19.3194 173.614 19.0708 172.856 19.0235 171.98H21.2252C21.2678 172.506 21.4382 172.944 21.7365 173.294C22.0396 173.64 22.4254 173.898 22.8942 174.068C23.3677 174.234 23.8861 174.317 24.4496 174.317C25.0699 174.317 25.6215 174.22 26.1044 174.026C26.5921 173.827 26.9756 173.552 27.255 173.202C27.5344 172.847 27.674 172.432 27.674 171.959C27.674 171.528 27.5509 171.175 27.3047 170.901C27.0632 170.626 26.7342 170.399 26.3175 170.219C25.9056 170.039 25.4392 169.88 24.9183 169.743L23.1996 169.274C22.0348 168.957 21.1115 168.491 20.4297 167.875C19.7526 167.259 19.4141 166.445 19.4141 165.432C19.4141 164.594 19.6414 163.862 20.0959 163.237C20.5504 162.612 21.166 162.127 21.9425 161.781C22.719 161.431 23.595 161.256 24.5703 161.256C25.5552 161.256 26.424 161.429 27.1769 161.774C27.9344 162.12 28.531 162.596 28.9666 163.202C29.4022 163.803 29.6295 164.494 29.6485 165.276H27.532ZM37.0011 176.22C35.9263 176.22 35.0006 175.991 34.2241 175.531C33.4523 175.067 32.8557 174.416 32.4343 173.578C32.0177 172.735 31.8093 171.748 31.8093 170.616C31.8093 169.499 32.0177 168.514 32.4343 167.662C32.8557 166.81 33.4428 166.144 34.1957 165.666C34.9533 165.188 35.8387 164.949 36.8519 164.949C37.4675 164.949 38.0641 165.051 38.6417 165.254C39.2194 165.458 39.7378 165.777 40.1971 166.213C40.6564 166.649 41.0186 167.214 41.2838 167.911C41.5489 168.602 41.6815 169.442 41.6815 170.432V171.185H33.0096V169.594H39.6005C39.6005 169.035 39.4869 168.54 39.2596 168.109C39.0323 167.674 38.7127 167.33 38.3008 167.08C37.8936 166.829 37.4154 166.703 36.8661 166.703C36.2696 166.703 35.7487 166.85 35.3036 167.143C34.8633 167.432 34.5224 167.811 34.2809 168.28C34.0442 168.744 33.9258 169.248 33.9258 169.793V171.036C33.9258 171.765 34.0536 172.385 34.3093 172.896C34.5697 173.408 34.932 173.798 35.396 174.068C35.86 174.333 36.4021 174.466 37.0224 174.466C37.4249 174.466 37.7918 174.409 38.1232 174.295C38.4547 174.177 38.7411 174.002 38.9826 173.77C39.2241 173.538 39.4088 173.251 39.5366 172.911L41.5465 173.273C41.3856 173.865 41.0967 174.383 40.6801 174.828C40.2681 175.268 39.7497 175.612 39.1247 175.858C38.5044 176.099 37.7965 176.22 37.0011 176.22ZM47.2124 176.241C46.5211 176.241 45.8961 176.114 45.3374 175.858C44.7787 175.598 44.336 175.221 44.0093 174.729C43.6873 174.236 43.5263 173.633 43.5263 172.918C43.5263 172.302 43.6447 171.795 43.8814 171.398C44.1182 171 44.4378 170.685 44.8402 170.453C45.2427 170.221 45.6925 170.046 46.1897 169.928C46.6868 169.809 47.1934 169.719 47.7095 169.658C48.3629 169.582 48.8933 169.52 49.3004 169.473C49.7076 169.421 50.0036 169.338 50.1882 169.224C50.3729 169.111 50.4652 168.926 50.4652 168.67V168.621C50.4652 168 50.29 167.52 49.9397 167.179C49.594 166.838 49.0779 166.668 48.3914 166.668C47.6764 166.668 47.1129 166.826 46.701 167.143C46.2938 167.456 46.0121 167.804 45.8558 168.188L43.8601 167.733C44.0968 167.07 44.4425 166.535 44.897 166.128C45.3563 165.716 45.8843 165.418 46.4808 165.233C47.0774 165.044 47.7048 164.949 48.3629 164.949C48.7986 164.949 49.2602 165.001 49.7479 165.105C50.2403 165.205 50.6996 165.389 51.1257 165.659C51.5566 165.929 51.9093 166.315 52.184 166.817C52.4586 167.314 52.5959 167.96 52.5959 168.756V176H50.522V174.509H50.4368C50.2995 174.783 50.0935 175.053 49.8189 175.318C49.5443 175.583 49.1915 175.804 48.7607 175.979C48.3298 176.154 47.8137 176.241 47.2124 176.241ZM47.674 174.537C48.2611 174.537 48.763 174.421 49.1797 174.189C49.6011 173.957 49.9207 173.654 50.1385 173.28C50.3611 172.901 50.4723 172.496 50.4723 172.065V170.659C50.3966 170.735 50.2498 170.806 50.032 170.872C49.8189 170.934 49.5751 170.988 49.3004 171.036C49.0258 171.078 48.7583 171.118 48.4979 171.156C48.2375 171.189 48.0197 171.218 47.8445 171.241C47.4326 171.294 47.0561 171.381 46.7152 171.504C46.379 171.627 46.1092 171.805 45.9056 172.037C45.7067 172.264 45.6073 172.567 45.6073 172.946C45.6073 173.472 45.8014 173.869 46.1897 174.139C46.5779 174.404 47.0727 174.537 47.674 174.537ZM55.4244 176V165.091H57.4769V166.824H57.5906C57.7894 166.237 58.1398 165.775 58.6417 165.439C59.1483 165.098 59.7213 164.928 60.3605 164.928C60.493 164.928 60.6493 164.932 60.8292 164.942C61.0139 164.951 61.1583 164.963 61.2625 164.977V167.009C61.1772 166.985 61.0257 166.959 60.8079 166.93C60.5901 166.897 60.3723 166.881 60.1545 166.881C59.6526 166.881 59.2052 166.987 58.8122 167.2C58.4239 167.409 58.1161 167.7 57.8889 168.074C57.6616 168.443 57.548 168.865 57.548 169.338V176H55.4244ZM67.3047 176.22C66.2488 176.22 65.3397 175.981 64.5774 175.503C63.8199 175.02 63.2375 174.355 62.8303 173.507C62.4231 172.66 62.2195 171.689 62.2195 170.595C62.2195 169.487 62.4278 168.509 62.8445 167.662C63.2611 166.81 63.8483 166.144 64.6058 165.666C65.3634 165.188 66.2559 164.949 67.2834 164.949C68.112 164.949 68.8506 165.103 69.4993 165.411C70.148 165.714 70.6712 166.14 71.0689 166.689C71.4714 167.238 71.7105 167.88 71.7862 168.614H69.7195C69.6058 168.102 69.3454 167.662 68.9382 167.293C68.5358 166.923 67.996 166.739 67.3189 166.739C66.7271 166.739 66.2086 166.895 65.7635 167.207C65.3232 167.515 64.9799 167.955 64.7337 168.528C64.4875 169.097 64.3644 169.769 64.3644 170.545C64.3644 171.341 64.4851 172.027 64.7266 172.605C64.9681 173.183 65.309 173.63 65.7493 173.947C66.1944 174.265 66.7176 174.423 67.3189 174.423C67.7214 174.423 68.086 174.35 68.4127 174.203C68.7441 174.052 69.0211 173.836 69.2436 173.557C69.4709 173.277 69.6295 172.941 69.7195 172.548H71.7862C71.7105 173.254 71.4808 173.884 71.0973 174.438C70.7138 174.991 70.2001 175.427 69.5561 175.744C68.9169 176.062 68.1665 176.22 67.3047 176.22ZM76.1808 169.523V176H74.0572V161.455H76.1524V166.866H76.2873C76.543 166.279 76.9336 165.813 77.4592 165.467C77.9848 165.122 78.6713 164.949 79.5188 164.949C80.2669 164.949 80.9204 165.103 81.4791 165.411C82.0425 165.718 82.4781 166.178 82.7859 166.788C83.0984 167.394 83.2546 168.152 83.2546 169.061V176H81.1311V169.317C81.1311 168.517 80.9251 167.896 80.5132 167.456C80.1012 167.011 79.5283 166.788 78.7944 166.788C78.2925 166.788 77.8427 166.895 77.445 167.108C77.052 167.321 76.7419 167.634 76.5146 168.045C76.292 168.453 76.1808 168.945 76.1808 169.523ZM91.5519 176V161.455H96.7365C97.8682 161.455 98.8057 161.661 99.549 162.072C100.292 162.484 100.849 163.048 101.218 163.763C101.587 164.473 101.772 165.273 101.772 166.163C101.772 167.058 101.585 167.863 101.211 168.578C100.842 169.288 100.283 169.852 99.5348 170.268C98.7915 170.68 97.8563 170.886 96.7294 170.886H93.1641V169.026H96.5306C97.2455 169.026 97.8255 168.902 98.2706 168.656C98.7157 168.405 99.0424 168.064 99.2507 167.634C99.4591 167.203 99.5632 166.713 99.5632 166.163C99.5632 165.614 99.4591 165.126 99.2507 164.7C99.0424 164.274 98.7133 163.94 98.2635 163.699C97.8184 163.457 97.2313 163.337 96.5022 163.337H93.7465V176H91.5519ZM104.174 176V165.091H106.227V166.824H106.341C106.539 166.237 106.89 165.775 107.392 165.439C107.898 165.098 108.471 164.928 109.11 164.928C109.243 164.928 109.399 164.932 109.579 164.942C109.764 164.951 109.908 164.963 110.012 164.977V167.009C109.927 166.985 109.776 166.959 109.558 166.93C109.34 166.897 109.122 166.881 108.904 166.881C108.403 166.881 107.955 166.987 107.562 167.2C107.174 167.409 106.866 167.7 106.639 168.074C106.412 168.443 106.298 168.865 106.298 169.338V176H104.174ZM116.055 176.22C115.032 176.22 114.139 175.986 113.377 175.517C112.615 175.048 112.023 174.393 111.602 173.55C111.18 172.707 110.969 171.722 110.969 170.595C110.969 169.464 111.18 168.474 111.602 167.626C112.023 166.779 112.615 166.121 113.377 165.652C114.139 165.183 115.032 164.949 116.055 164.949C117.077 164.949 117.97 165.183 118.732 165.652C119.495 166.121 120.086 166.779 120.508 167.626C120.929 168.474 121.14 169.464 121.14 170.595C121.14 171.722 120.929 172.707 120.508 173.55C120.086 174.393 119.495 175.048 118.732 175.517C117.97 175.986 117.077 176.22 116.055 176.22ZM116.062 174.438C116.725 174.438 117.274 174.262 117.71 173.912C118.145 173.562 118.467 173.095 118.675 172.513C118.889 171.93 118.995 171.289 118.995 170.588C118.995 169.892 118.889 169.253 118.675 168.67C118.467 168.083 118.145 167.612 117.71 167.257C117.274 166.902 116.725 166.724 116.062 166.724C115.394 166.724 114.84 166.902 114.4 167.257C113.964 167.612 113.64 168.083 113.427 168.67C113.219 169.253 113.114 169.892 113.114 170.588C113.114 171.289 113.219 171.93 113.427 172.513C113.64 173.095 113.964 173.562 114.4 173.912C114.84 174.262 115.394 174.438 116.062 174.438ZM128.702 165.091V166.795H122.537V165.091H128.702ZM124.228 176V163.827C124.228 163.145 124.377 162.579 124.675 162.129C124.973 161.675 125.369 161.336 125.861 161.114C126.354 160.886 126.889 160.773 127.466 160.773C127.892 160.773 128.257 160.808 128.56 160.879C128.863 160.946 129.088 161.007 129.235 161.064L128.738 162.783C128.638 162.754 128.51 162.721 128.354 162.683C128.198 162.641 128.008 162.619 127.786 162.619C127.27 162.619 126.9 162.747 126.678 163.003C126.46 163.259 126.351 163.628 126.351 164.111V176H124.228ZM130.893 176V165.091H133.017V176H130.893ZM131.966 163.408C131.596 163.408 131.279 163.285 131.014 163.038C130.753 162.787 130.623 162.489 130.623 162.143C130.623 161.793 130.753 161.495 131.014 161.249C131.279 160.998 131.596 160.872 131.966 160.872C132.335 160.872 132.65 160.998 132.91 161.249C133.175 161.495 133.308 161.793 133.308 162.143C133.308 162.489 133.175 162.787 132.91 163.038C132.65 163.285 132.335 163.408 131.966 163.408ZM137.997 161.455V176H135.874V161.455H137.997ZM145.556 176.22C144.481 176.22 143.555 175.991 142.779 175.531C142.007 175.067 141.41 174.416 140.989 173.578C140.572 172.735 140.364 171.748 140.364 170.616C140.364 169.499 140.572 168.514 140.989 167.662C141.41 166.81 141.998 166.144 142.75 165.666C143.508 165.188 144.393 164.949 145.407 164.949C146.022 164.949 146.619 165.051 147.196 165.254C147.774 165.458 148.293 165.777 148.752 166.213C149.211 166.649 149.573 167.214 149.838 167.911C150.104 168.602 150.236 169.442 150.236 170.432V171.185H141.564V169.594H148.155C148.155 169.035 148.042 168.54 147.814 168.109C147.587 167.674 147.267 167.33 146.855 167.08C146.448 166.829 145.97 166.703 145.421 166.703C144.824 166.703 144.303 166.85 143.858 167.143C143.418 167.432 143.077 167.811 142.836 168.28C142.599 168.744 142.48 169.248 142.48 169.793V171.036C142.48 171.765 142.608 172.385 142.864 172.896C143.124 173.408 143.487 173.798 143.951 174.068C144.415 174.333 144.957 174.466 145.577 174.466C145.98 174.466 146.346 174.409 146.678 174.295C147.009 174.177 147.296 174.002 147.537 173.77C147.779 173.538 147.963 173.251 148.091 172.911L150.101 173.273C149.94 173.865 149.651 174.383 149.235 174.828C148.823 175.268 148.304 175.612 147.679 175.858C147.059 176.099 146.351 176.22 145.556 176.22ZM160.767 167.754L158.842 168.095C158.762 167.849 158.634 167.615 158.459 167.392C158.288 167.17 158.056 166.987 157.763 166.845C157.469 166.703 157.102 166.632 156.662 166.632C156.061 166.632 155.559 166.767 155.156 167.037C154.754 167.302 154.553 167.645 154.553 168.067C154.553 168.431 154.688 168.725 154.957 168.947C155.227 169.17 155.663 169.352 156.264 169.494L157.997 169.892C159.001 170.124 159.749 170.482 160.241 170.964C160.734 171.447 160.98 172.075 160.98 172.847C160.98 173.5 160.791 174.082 160.412 174.594C160.038 175.1 159.515 175.498 158.842 175.787C158.175 176.076 157.401 176.22 156.52 176.22C155.298 176.22 154.302 175.96 153.53 175.439C152.758 174.913 152.285 174.168 152.109 173.202L154.162 172.889C154.29 173.424 154.553 173.829 154.95 174.104C155.348 174.374 155.866 174.509 156.506 174.509C157.202 174.509 157.758 174.364 158.175 174.075C158.591 173.782 158.8 173.424 158.8 173.003C158.8 172.662 158.672 172.375 158.416 172.143C158.165 171.911 157.779 171.736 157.259 171.618L155.412 171.213C154.394 170.981 153.641 170.612 153.153 170.105C152.67 169.598 152.429 168.957 152.429 168.18C152.429 167.536 152.609 166.973 152.969 166.49C153.329 166.007 153.826 165.631 154.46 165.361C155.095 165.086 155.822 164.949 156.641 164.949C157.82 164.949 158.748 165.205 159.425 165.716C160.102 166.223 160.549 166.902 160.767 167.754Z" fill="white"/>
<path d="M337.001 203L332.651 198.65M335.001 193C335.001 197.418 331.419 201 327.001 201C322.582 201 319.001 197.418 319.001 193C319.001 188.582 322.582 185 327.001 185C331.419 185 335.001 188.582 335.001 193Z" stroke="#B3B3B3" stroke-width="2.5" stroke-linecap="round" stroke-linejoin="round"/>
<line x1="18" y1="209.977" x2="347.002" y2="209.977" stroke="white"/>
<path opacity="0.4" d="M29.853 188.545V206H27.8416V188.545H29.853Z" fill="white"/>
<path d="M27.1222 240.273C27.1222 241.27 26.9421 242.132 26.582 242.858C26.2219 243.584 25.728 244.144 25.1001 244.538C24.4723 244.932 23.7552 245.129 22.9489 245.129C22.1425 245.129 21.4254 244.932 20.7976 244.538C20.1697 244.144 19.6758 243.584 19.3157 242.858C18.9556 242.132 18.7756 241.27 18.7756 240.273C18.7756 239.276 18.9556 238.414 19.3157 237.688C19.6758 236.961 20.1697 236.401 20.7976 236.007C21.4254 235.613 22.1425 235.416 22.9489 235.416C23.7552 235.416 24.4723 235.613 25.1001 236.007C25.728 236.401 26.2219 236.961 26.582 237.688C26.9421 238.414 27.1222 239.276 27.1222 240.273ZM26.0142 240.273C26.0142 239.454 25.8772 238.763 25.6033 238.2C25.3325 237.637 24.9647 237.21 24.5 236.921C24.0384 236.632 23.5213 236.487 22.9489 236.487C22.3764 236.487 21.8578 236.632 21.3931 236.921C20.9315 237.21 20.5637 237.637 20.2898 238.2C20.0189 238.763 19.8835 239.454 19.8835 240.273C19.8835 241.091 20.0189 241.782 20.2898 242.346C20.5637 242.909 20.9315 243.335 21.3931 243.624C21.8578 243.914 22.3764 244.058 22.9489 244.058C23.5213 244.058 24.0384 243.914 24.5 243.624C24.9647 243.335 25.3325 242.909 25.6033 242.346C25.8772 241.782 26.0142 241.091 26.0142 240.273ZM28.8995 245V237.909H29.9521V238.98H30.0259C30.1552 238.629 30.3891 238.345 30.7276 238.126C31.0662 237.908 31.4478 237.798 31.8725 237.798C31.9525 237.798 32.0526 237.8 32.1726 237.803C32.2926 237.806 32.3834 237.811 32.445 237.817V238.925C32.408 238.915 32.3234 238.902 32.1911 238.883C32.0618 238.862 31.9248 238.851 31.7802 238.851C31.4355 238.851 31.1277 238.923 30.8569 239.068C30.5891 239.209 30.3768 239.406 30.2198 239.659C30.0659 239.908 29.989 240.193 29.989 240.513V245H28.8995ZM36.3828 247.807C35.8565 247.807 35.4041 247.739 35.0256 247.604C34.647 247.471 34.3316 247.296 34.0792 247.077C33.8299 246.862 33.6314 246.631 33.4837 246.385L34.3516 245.776C34.45 245.905 34.5747 246.053 34.7255 246.219C34.8763 246.388 35.0825 246.534 35.3441 246.657C35.6088 246.783 35.955 246.847 36.3828 246.847C36.9553 246.847 37.4277 246.708 37.8001 246.431C38.1725 246.154 38.3587 245.72 38.3587 245.129V243.689H38.2663C38.1863 243.818 38.0724 243.978 37.9247 244.169C37.7801 244.357 37.5708 244.525 37.2969 244.672C37.026 244.817 36.6598 244.889 36.1982 244.889C35.6257 244.889 35.1117 244.754 34.6562 244.483C34.2038 244.212 33.8453 243.818 33.5806 243.301C33.319 242.784 33.1882 242.156 33.1882 241.418C33.1882 240.691 33.3159 240.059 33.5714 239.52C33.8268 238.979 34.1823 238.56 34.6378 238.265C35.0933 237.966 35.6196 237.817 36.2166 237.817C36.6783 237.817 37.0445 237.894 37.3153 238.048C37.5893 238.198 37.7985 238.371 37.9432 238.565C38.0909 238.755 38.2048 238.912 38.2848 239.036H38.3956V237.909H39.4482V245.203C39.4482 245.812 39.3097 246.308 39.0327 246.69C38.7588 247.074 38.3894 247.356 37.9247 247.534C37.4631 247.716 36.9491 247.807 36.3828 247.807ZM36.3459 243.911C36.7829 243.911 37.1522 243.81 37.4538 243.61C37.7554 243.41 37.9847 243.123 38.1417 242.747C38.2987 242.372 38.3771 241.922 38.3771 241.399C38.3771 240.888 38.3002 240.437 38.1463 240.047C37.9924 239.656 37.7647 239.349 37.4631 239.128C37.1615 238.906 36.7891 238.795 36.3459 238.795C35.8842 238.795 35.4995 238.912 35.1918 239.146C34.8871 239.38 34.6578 239.694 34.5039 240.088C34.3531 240.482 34.2777 240.919 34.2777 241.399C34.2777 241.892 34.3546 242.327 34.5085 242.706C34.6655 243.081 34.8963 243.377 35.201 243.592C35.5088 243.804 35.8904 243.911 36.3459 243.911ZM43.5291 245.166C43.0798 245.166 42.672 245.082 42.3058 244.912C41.9395 244.74 41.6487 244.492 41.4332 244.169C41.2178 243.843 41.1101 243.449 41.1101 242.987C41.1101 242.581 41.1901 242.252 41.3501 241.999C41.5102 241.744 41.7241 241.544 41.9918 241.399C42.2596 241.254 42.555 241.147 42.8782 241.076C43.2044 241.002 43.5322 240.944 43.8615 240.901C44.2924 240.845 44.6417 240.804 44.9094 240.776C45.1803 240.745 45.3772 240.694 45.5004 240.624C45.6265 240.553 45.6896 240.43 45.6896 240.254V240.217C45.6896 239.762 45.565 239.408 45.3157 239.156C45.0695 238.903 44.6955 238.777 44.1939 238.777C43.6738 238.777 43.266 238.891 42.9705 239.119C42.6751 239.346 42.4673 239.589 42.3473 239.848L41.3132 239.479C41.4979 239.048 41.7441 238.712 42.0518 238.472C42.3627 238.229 42.7012 238.06 43.0675 237.964C43.4368 237.866 43.8 237.817 44.157 237.817C44.3847 237.817 44.6463 237.844 44.9418 237.9C45.2403 237.952 45.5281 238.061 45.805 238.228C46.0851 238.394 46.3175 238.645 46.5021 238.98C46.6868 239.316 46.7791 239.765 46.7791 240.328V245H45.6896V244.04H45.6342C45.5604 244.194 45.4373 244.358 45.2649 244.534C45.0926 244.709 44.8633 244.858 44.5771 244.982C44.2908 245.105 43.9415 245.166 43.5291 245.166ZM43.6953 244.188C44.1262 244.188 44.4893 244.103 44.7848 243.934C45.0833 243.764 45.308 243.546 45.4588 243.278C45.6127 243.01 45.6896 242.729 45.6896 242.433V241.436C45.6435 241.491 45.5419 241.542 45.3849 241.588C45.2311 241.632 45.0526 241.67 44.8494 241.704C44.6494 241.735 44.454 241.762 44.2631 241.787C44.0754 241.808 43.9231 241.827 43.8061 241.842C43.523 241.879 43.2583 241.939 43.0121 242.022C42.7689 242.102 42.572 242.224 42.4212 242.387C42.2734 242.547 42.1996 242.766 42.1996 243.043C42.1996 243.421 42.3396 243.707 42.6197 243.901C42.9028 244.092 43.2614 244.188 43.6953 244.188ZM49.8572 240.734V245H48.7677V237.909H49.8202V239.017H49.9126C50.0787 238.657 50.3311 238.368 50.6697 238.149C51.0082 237.928 51.4452 237.817 51.9807 237.817C52.4608 237.817 52.8809 237.915 53.241 238.112C53.6011 238.306 53.8812 238.602 54.0812 238.999C54.2813 239.393 54.3813 239.891 54.3813 240.494V245H53.2918V240.568C53.2918 240.011 53.1472 239.577 52.8579 239.266C52.5686 238.952 52.1715 238.795 51.6668 238.795C51.319 238.795 51.0082 238.871 50.7343 239.022C50.4635 239.172 50.2496 239.393 50.0926 239.682C49.9356 239.971 49.8572 240.322 49.8572 240.734ZM56.3722 245V237.909H57.4616V245H56.3722ZM56.9261 236.727C56.7138 236.727 56.5307 236.655 56.3768 236.51C56.226 236.366 56.1506 236.192 56.1506 235.989C56.1506 235.786 56.226 235.612 56.3768 235.467C56.5307 235.322 56.7138 235.25 56.9261 235.25C57.1385 235.25 57.3201 235.322 57.4709 235.467C57.6248 235.612 57.7017 235.786 57.7017 235.989C57.7017 236.192 57.6248 236.366 57.4709 236.51C57.3201 236.655 57.1385 236.727 56.9261 236.727ZM59.254 245V244.169L63.2796 238.999V238.925H59.3833V237.909H64.683V238.777L60.7682 243.911V243.984H64.8122V245H59.254ZM69.2602 245.148C68.577 245.148 67.9876 244.997 67.4921 244.695C66.9997 244.391 66.6196 243.966 66.3518 243.421C66.0872 242.873 65.9548 242.236 65.9548 241.51C65.9548 240.784 66.0872 240.143 66.3518 239.589C66.6196 239.032 66.992 238.598 67.469 238.288C67.9491 237.974 68.5093 237.817 69.1494 237.817C69.5187 237.817 69.8834 237.878 70.2435 238.001C70.6036 238.125 70.9314 238.325 71.2268 238.602C71.5223 238.875 71.7577 239.239 71.9332 239.691C72.1086 240.143 72.1963 240.701 72.1963 241.362V241.824H66.7304V240.882H71.0883C71.0883 240.482 71.0083 240.125 70.8483 239.811C70.6913 239.497 70.4666 239.249 70.1743 239.068C69.885 238.886 69.5434 238.795 69.1494 238.795C68.7155 238.795 68.34 238.903 68.023 239.119C67.7091 239.331 67.4675 239.608 67.2982 239.95C67.1289 240.291 67.0443 240.657 67.0443 241.048V241.676C67.0443 242.212 67.1366 242.666 67.3213 243.038C67.509 243.407 67.7691 243.689 68.1015 243.883C68.4339 244.074 68.8201 244.169 69.2602 244.169C69.5464 244.169 69.805 244.129 70.0358 244.049C70.2697 243.966 70.4713 243.843 70.6405 243.68C70.8098 243.513 70.9406 243.307 71.0329 243.061L72.0855 243.357C71.9747 243.714 71.7885 244.027 71.5269 244.298C71.2653 244.566 70.9421 244.775 70.5574 244.926C70.1727 245.074 69.7403 245.148 69.2602 245.148ZM78.3039 243.79C78.0761 243.79 77.8807 243.709 77.7176 243.546C77.5545 243.383 77.4729 243.187 77.4729 242.96C77.4729 242.732 77.5545 242.536 77.7176 242.373C77.8807 242.21 78.0761 242.129 78.3039 242.129C78.5316 242.129 78.7271 242.21 78.8902 242.373C79.0533 242.536 79.1349 242.732 79.1349 242.96C79.1349 243.11 79.0964 243.249 79.0194 243.375C78.9456 243.501 78.8456 243.603 78.7194 243.68C78.5963 243.754 78.4578 243.79 78.3039 243.79ZM78.3039 239.008C78.0761 239.008 77.8807 238.926 77.7176 238.763C77.5545 238.6 77.4729 238.405 77.4729 238.177C77.4729 237.949 77.5545 237.754 77.7176 237.591C77.8807 237.427 78.0761 237.346 78.3039 237.346C78.5316 237.346 78.7271 237.427 78.8902 237.591C79.0533 237.754 79.1349 237.949 79.1349 238.177C79.1349 238.328 79.0964 238.466 79.0194 238.592C78.9456 238.719 78.8456 238.82 78.7194 238.897C78.5963 238.971 78.4578 239.008 78.3039 239.008ZM85.2817 245H84.0814L87.553 235.545H88.7348L92.2064 245H91.0061L88.1808 237.041H88.107L85.2817 245ZM85.7249 241.307H90.5629V242.322H85.7249V241.307ZM94.6208 235.545V245H93.5313V235.545H94.6208ZM96.6163 247.659V237.909H97.6689V239.036H97.7981C97.8781 238.912 97.9889 238.755 98.1305 238.565C98.2752 238.371 98.4814 238.198 98.7491 238.048C99.0199 237.894 99.3862 237.817 99.8478 237.817C100.445 237.817 100.971 237.966 101.427 238.265C101.882 238.563 102.238 238.986 102.493 239.534C102.749 240.082 102.876 240.728 102.876 241.473C102.876 242.224 102.749 242.875 102.493 243.426C102.238 243.974 101.884 244.398 101.431 244.7C100.979 244.998 100.457 245.148 99.8663 245.148C99.4108 245.148 99.0461 245.072 98.7722 244.922C98.4983 244.768 98.2875 244.594 98.1397 244.4C97.992 244.203 97.8781 244.04 97.7981 243.911H97.7058V247.659H96.6163ZM97.6873 241.455C97.6873 241.99 97.7658 242.462 97.9228 242.872C98.0797 243.278 98.309 243.597 98.6106 243.827C98.9122 244.055 99.2815 244.169 99.7186 244.169C100.174 244.169 100.554 244.049 100.859 243.809C101.167 243.566 101.397 243.24 101.551 242.83C101.708 242.418 101.787 241.959 101.787 241.455C101.787 240.956 101.71 240.507 101.556 240.107C101.405 239.703 101.176 239.385 100.868 239.151C100.563 238.914 100.18 238.795 99.7186 238.795C99.2754 238.795 98.903 238.908 98.6014 239.132C98.2998 239.354 98.072 239.665 97.9181 240.065C97.7643 240.462 97.6873 240.925 97.6873 241.455ZM105.628 240.734V245H104.538V235.545H105.628V239.017H105.72C105.886 238.651 106.135 238.36 106.468 238.145C106.803 237.926 107.25 237.817 107.807 237.817C108.29 237.817 108.713 237.914 109.076 238.108C109.439 238.298 109.721 238.592 109.921 238.989C110.124 239.383 110.226 239.885 110.226 240.494V245H109.136V240.568C109.136 240.005 108.99 239.569 108.698 239.262C108.408 238.951 108.007 238.795 107.493 238.795C107.136 238.795 106.816 238.871 106.532 239.022C106.252 239.172 106.031 239.393 105.868 239.682C105.708 239.971 105.628 240.322 105.628 240.734ZM114.305 245.166C113.856 245.166 113.448 245.082 113.082 244.912C112.716 244.74 112.425 244.492 112.21 244.169C111.994 243.843 111.886 243.449 111.886 242.987C111.886 242.581 111.966 242.252 112.127 241.999C112.287 241.744 112.5 241.544 112.768 241.399C113.036 241.254 113.331 241.147 113.655 241.076C113.981 241.002 114.309 240.944 114.638 240.901C115.069 240.845 115.418 240.804 115.686 240.776C115.957 240.745 116.154 240.694 116.277 240.624C116.403 240.553 116.466 240.43 116.466 240.254V240.217C116.466 239.762 116.341 239.408 116.092 239.156C115.846 238.903 115.472 238.777 114.97 238.777C114.45 238.777 114.042 238.891 113.747 239.119C113.451 239.346 113.244 239.589 113.124 239.848L112.09 239.479C112.274 239.048 112.52 238.712 112.828 238.472C113.139 238.229 113.478 238.06 113.844 237.964C114.213 237.866 114.576 237.817 114.933 237.817C115.161 237.817 115.423 237.844 115.718 237.9C116.017 237.952 116.304 238.061 116.581 238.228C116.861 238.394 117.094 238.645 117.278 238.98C117.463 239.316 117.555 239.765 117.555 240.328V245H116.466V244.04H116.411C116.337 244.194 116.214 244.358 116.041 244.534C115.869 244.709 115.64 244.858 115.353 244.982C115.067 245.105 114.718 245.166 114.305 245.166ZM114.472 244.188C114.903 244.188 115.266 244.103 115.561 243.934C115.86 243.764 116.084 243.546 116.235 243.278C116.389 243.01 116.466 242.729 116.466 242.433V241.436C116.42 241.491 116.318 241.542 116.161 241.588C116.007 241.632 115.829 241.67 115.626 241.704C115.426 241.735 115.23 241.762 115.04 241.787C114.852 241.808 114.699 241.827 114.582 241.842C114.299 241.879 114.035 241.939 113.788 242.022C113.545 242.102 113.348 242.224 113.198 242.387C113.05 242.547 112.976 242.766 112.976 243.043C112.976 243.421 113.116 243.707 113.396 243.901C113.679 244.092 114.038 244.188 114.472 244.188ZM119.692 245V235.545H120.781V239.036H120.874C120.954 238.912 121.064 238.755 121.206 238.565C121.351 238.371 121.557 238.198 121.825 238.048C122.095 237.894 122.462 237.817 122.923 237.817C123.52 237.817 124.047 237.966 124.502 238.265C124.958 238.563 125.313 238.986 125.569 239.534C125.824 240.082 125.952 240.728 125.952 241.473C125.952 242.224 125.824 242.875 125.569 243.426C125.313 243.974 124.959 244.398 124.507 244.7C124.054 244.998 123.533 245.148 122.942 245.148C122.486 245.148 122.122 245.072 121.848 244.922C121.574 244.768 121.363 244.594 121.215 244.4C121.067 244.203 120.954 244.04 120.874 243.911H120.744V245H119.692ZM120.763 241.455C120.763 241.99 120.841 242.462 120.998 242.872C121.155 243.278 121.384 243.597 121.686 243.827C121.988 244.055 122.357 244.169 122.794 244.169C123.25 244.169 123.63 244.049 123.934 243.809C124.242 243.566 124.473 243.24 124.627 242.83C124.784 242.418 124.862 241.959 124.862 241.455C124.862 240.956 124.785 240.507 124.631 240.107C124.481 239.703 124.251 239.385 123.944 239.151C123.639 238.914 123.256 238.795 122.794 238.795C122.351 238.795 121.978 238.908 121.677 239.132C121.375 239.354 121.147 239.665 120.994 240.065C120.84 240.462 120.763 240.925 120.763 241.455ZM130.591 245.148C129.908 245.148 129.319 244.997 128.823 244.695C128.331 244.391 127.951 243.966 127.683 243.421C127.418 242.873 127.286 242.236 127.286 241.51C127.286 240.784 127.418 240.143 127.683 239.589C127.951 239.032 128.323 238.598 128.8 238.288C129.28 237.974 129.84 237.817 130.48 237.817C130.85 237.817 131.214 237.878 131.575 238.001C131.935 238.125 132.262 238.325 132.558 238.602C132.853 238.875 133.089 239.239 133.264 239.691C133.44 240.143 133.527 240.701 133.527 241.362V241.824H128.061V240.882H132.419C132.419 240.482 132.339 240.125 132.179 239.811C132.022 239.497 131.798 239.249 131.505 239.068C131.216 238.886 130.874 238.795 130.48 238.795C130.047 238.795 129.671 238.903 129.354 239.119C129.04 239.331 128.799 239.608 128.629 239.95C128.46 240.291 128.375 240.657 128.375 241.048V241.676C128.375 242.212 128.468 242.666 128.652 243.038C128.84 243.407 129.1 243.689 129.433 243.883C129.765 244.074 130.151 244.169 130.591 244.169C130.877 244.169 131.136 244.129 131.367 244.049C131.601 243.966 131.802 243.843 131.972 243.68C132.141 243.513 132.272 243.307 132.364 243.061L133.417 243.357C133.306 243.714 133.12 244.027 132.858 244.298C132.596 244.566 132.273 244.775 131.888 244.926C131.504 245.074 131.071 245.148 130.591 245.148ZM138.268 237.909V238.832H134.594V237.909H138.268ZM135.665 236.21H136.754V242.969C136.754 243.277 136.799 243.507 136.888 243.661C136.98 243.812 137.097 243.914 137.239 243.966C137.384 244.015 137.536 244.04 137.696 244.04C137.816 244.04 137.915 244.034 137.991 244.021C138.068 244.006 138.13 243.994 138.176 243.984L138.398 244.963C138.324 244.991 138.221 245.018 138.088 245.046C137.956 245.077 137.788 245.092 137.585 245.092C137.277 245.092 136.976 245.026 136.68 244.894C136.388 244.761 136.145 244.56 135.951 244.289C135.76 244.018 135.665 243.677 135.665 243.264V236.21ZM139.907 245V237.909H140.997V245H139.907ZM140.461 236.727C140.249 236.727 140.066 236.655 139.912 236.51C139.761 236.366 139.686 236.192 139.686 235.989C139.686 235.786 139.761 235.612 139.912 235.467C140.066 235.322 140.249 235.25 140.461 235.25C140.674 235.25 140.855 235.322 141.006 235.467C141.16 235.612 141.237 235.786 141.237 235.989C141.237 236.192 141.16 236.366 141.006 236.51C140.855 236.655 140.674 236.727 140.461 236.727ZM145.873 245.148C145.208 245.148 144.636 244.991 144.156 244.677C143.676 244.363 143.306 243.931 143.048 243.38C142.789 242.829 142.66 242.199 142.66 241.491C142.66 240.771 142.792 240.136 143.057 239.585C143.325 239.031 143.697 238.598 144.174 238.288C144.654 237.974 145.214 237.817 145.854 237.817C146.353 237.817 146.802 237.909 147.203 238.094C147.603 238.278 147.93 238.537 148.186 238.869C148.441 239.202 148.6 239.589 148.661 240.033H147.572C147.489 239.71 147.304 239.423 147.018 239.174C146.735 238.922 146.353 238.795 145.873 238.795C145.448 238.795 145.076 238.906 144.756 239.128C144.439 239.346 144.191 239.656 144.013 240.056C143.837 240.453 143.749 240.919 143.749 241.455C143.749 242.002 143.836 242.479 144.008 242.886C144.183 243.292 144.43 243.607 144.747 243.832C145.067 244.057 145.442 244.169 145.873 244.169C146.156 244.169 146.413 244.12 146.644 244.021C146.875 243.923 147.07 243.781 147.23 243.597C147.39 243.412 147.504 243.19 147.572 242.932H148.661C148.6 243.35 148.447 243.727 148.204 244.063C147.964 244.395 147.646 244.66 147.249 244.857C146.855 245.051 146.396 245.148 145.873 245.148ZM152.341 245.166C151.891 245.166 151.484 245.082 151.117 244.912C150.751 244.74 150.46 244.492 150.245 244.169C150.029 243.843 149.922 243.449 149.922 242.987C149.922 242.581 150.002 242.252 150.162 241.999C150.322 241.744 150.536 241.544 150.803 241.399C151.071 241.254 151.367 241.147 151.69 241.076C152.016 241.002 152.344 240.944 152.673 240.901C153.104 240.845 153.453 240.804 153.721 240.776C153.992 240.745 154.189 240.694 154.312 240.624C154.438 240.553 154.501 240.43 154.501 240.254V240.217C154.501 239.762 154.377 239.408 154.127 239.156C153.881 238.903 153.507 238.777 153.005 238.777C152.485 238.777 152.078 238.891 151.782 239.119C151.487 239.346 151.279 239.589 151.159 239.848L150.125 239.479C150.309 239.048 150.556 238.712 150.863 238.472C151.174 238.229 151.513 238.06 151.879 237.964C152.248 237.866 152.611 237.817 152.968 237.817C153.196 237.817 153.458 237.844 153.753 237.9C154.052 237.952 154.34 238.061 154.617 238.228C154.897 238.394 155.129 238.645 155.314 238.98C155.498 239.316 155.591 239.765 155.591 240.328V245H154.501V244.04H154.446C154.372 244.194 154.249 244.358 154.076 244.534C153.904 244.709 153.675 244.858 153.389 244.982C153.102 245.105 152.753 245.166 152.341 245.166ZM152.507 244.188C152.938 244.188 153.301 244.103 153.596 243.934C153.895 243.764 154.12 243.546 154.27 243.278C154.424 243.01 154.501 242.729 154.501 242.433V241.436C154.455 241.491 154.353 241.542 154.196 241.588C154.043 241.632 153.864 241.67 153.661 241.704C153.461 241.735 153.265 241.762 153.075 241.787C152.887 241.808 152.735 241.827 152.618 241.842C152.334 241.879 152.07 241.939 151.824 242.022C151.58 242.102 151.383 242.224 151.233 242.387C151.085 242.547 151.011 242.766 151.011 243.043C151.011 243.421 151.151 243.707 151.431 243.901C151.714 244.092 152.073 244.188 152.507 244.188ZM158.669 235.545V245H157.579V235.545H158.669ZM172.445 240.273C172.445 241.27 172.265 242.132 171.905 242.858C171.545 243.584 171.051 244.144 170.423 244.538C169.796 244.932 169.078 245.129 168.272 245.129C167.466 245.129 166.749 244.932 166.121 244.538C165.493 244.144 164.999 243.584 164.639 242.858C164.279 242.132 164.099 241.27 164.099 240.273C164.099 239.276 164.279 238.414 164.639 237.688C164.999 236.961 165.493 236.401 166.121 236.007C166.749 235.613 167.466 235.416 168.272 235.416C169.078 235.416 169.796 235.613 170.423 236.007C171.051 236.401 171.545 236.961 171.905 237.688C172.265 238.414 172.445 239.276 172.445 240.273ZM171.337 240.273C171.337 239.454 171.2 238.763 170.927 238.2C170.656 237.637 170.288 237.21 169.823 236.921C169.362 236.632 168.845 236.487 168.272 236.487C167.7 236.487 167.181 236.632 166.716 236.921C166.255 237.21 165.887 237.637 165.613 238.2C165.342 238.763 165.207 239.454 165.207 240.273C165.207 241.091 165.342 241.782 165.613 242.346C165.887 242.909 166.255 243.335 166.716 243.624C167.181 243.914 167.7 244.058 168.272 244.058C168.845 244.058 169.362 243.914 169.823 243.624C170.288 243.335 170.656 242.909 170.927 242.346C171.2 241.782 171.337 241.091 171.337 240.273ZM174.223 245V237.909H175.275V238.98H175.349C175.478 238.629 175.712 238.345 176.051 238.126C176.389 237.908 176.771 237.798 177.196 237.798C177.276 237.798 177.376 237.8 177.496 237.803C177.616 237.806 177.707 237.811 177.768 237.817V238.925C177.731 238.915 177.647 238.902 177.514 238.883C177.385 238.862 177.248 238.851 177.103 238.851C176.759 238.851 176.451 238.923 176.18 239.068C175.912 239.209 175.7 239.406 175.543 239.659C175.389 239.908 175.312 240.193 175.312 240.513V245H174.223ZM181.521 245.148C180.93 245.148 180.409 244.998 179.956 244.7C179.504 244.398 179.15 243.974 178.895 243.426C178.639 242.875 178.511 242.224 178.511 241.473C178.511 240.728 178.639 240.082 178.895 239.534C179.15 238.986 179.506 238.563 179.961 238.265C180.417 237.966 180.943 237.817 181.54 237.817C182.002 237.817 182.366 237.894 182.634 238.048C182.905 238.198 183.111 238.371 183.253 238.565C183.397 238.755 183.51 238.912 183.59 239.036H183.682V235.545H184.771V245H183.719V243.911H183.59C183.51 244.04 183.396 244.203 183.248 244.4C183.1 244.594 182.889 244.768 182.616 244.922C182.342 245.072 181.977 245.148 181.521 245.148ZM181.669 244.169C182.106 244.169 182.475 244.055 182.777 243.827C183.079 243.597 183.308 243.278 183.465 242.872C183.622 242.462 183.7 241.99 183.7 241.455C183.7 240.925 183.623 240.462 183.47 240.065C183.316 239.665 183.088 239.354 182.786 239.132C182.485 238.908 182.112 238.795 181.669 238.795C181.207 238.795 180.823 238.914 180.515 239.151C180.21 239.385 179.981 239.703 179.827 240.107C179.676 240.507 179.601 240.956 179.601 241.455C179.601 241.959 179.678 242.418 179.832 242.83C179.989 243.24 180.22 243.566 180.524 243.809C180.832 244.049 181.214 244.169 181.669 244.169ZM189.891 245.148C189.208 245.148 188.618 244.997 188.123 244.695C187.631 244.391 187.25 243.966 186.983 243.421C186.718 242.873 186.586 242.236 186.586 241.51C186.586 240.784 186.718 240.143 186.983 239.589C187.25 239.032 187.623 238.598 188.1 238.288C188.58 237.974 189.14 237.817 189.78 237.817C190.15 237.817 190.514 237.878 190.874 238.001C191.234 238.125 191.562 238.325 191.858 238.602C192.153 238.875 192.389 239.239 192.564 239.691C192.739 240.143 192.827 240.701 192.827 241.362V241.824H187.361V240.882H191.719C191.719 240.482 191.639 240.125 191.479 239.811C191.322 239.497 191.098 239.249 190.805 239.068C190.516 238.886 190.174 238.795 189.78 238.795C189.346 238.795 188.971 238.903 188.654 239.119C188.34 239.331 188.098 239.608 187.929 239.95C187.76 240.291 187.675 240.657 187.675 241.048V241.676C187.675 242.212 187.767 242.666 187.952 243.038C188.14 243.407 188.4 243.689 188.732 243.883C189.065 244.074 189.451 244.169 189.891 244.169C190.177 244.169 190.436 244.129 190.667 244.049C190.901 243.966 191.102 243.843 191.271 243.68C191.441 243.513 191.571 243.307 191.664 243.061L192.716 243.357C192.606 243.714 192.419 244.027 192.158 244.298C191.896 244.566 191.573 244.775 191.188 244.926C190.804 245.074 190.371 245.148 189.891 245.148ZM194.484 245V237.909H195.537V238.98H195.611C195.74 238.629 195.974 238.345 196.313 238.126C196.651 237.908 197.033 237.798 197.457 237.798C197.537 237.798 197.638 237.8 197.758 237.803C197.878 237.806 197.968 237.811 198.03 237.817V238.925C197.993 238.915 197.908 238.902 197.776 238.883C197.647 238.862 197.51 238.851 197.365 238.851C197.02 238.851 196.713 238.923 196.442 239.068C196.174 239.209 195.962 239.406 195.805 239.659C195.651 239.908 195.574 240.193 195.574 240.513V245H194.484Z" fill="white"/>
<path d="M209.5 245.459V235.542M209.5 235.542L204.542 240.5M209.5 235.542L214.458 240.5" stroke="#B3B3B3" stroke-width="2.5" stroke-linecap="round" stroke-linejoin="round"/>
<path d="M27 258.5H369C378.665 258.5 386.5 266.335 386.5 276V296C386.5 305.665 378.665 313.5 369 313.5H27C17.335 313.5 9.5 305.665 9.5 296V276C9.5 266.335 17.335 258.5 27 258.5Z" fill="#949494" stroke="#C9C9C9" stroke-width="3"/>
<path d="M30.6761 292H26.4382V278.909H30.8104C32.093 278.909 33.1946 279.171 34.1151 279.695C35.0355 280.215 35.7408 280.963 36.2308 281.939C36.7251 282.911 36.9723 284.076 36.9723 285.435C36.9723 286.799 36.723 287.971 36.2244 288.951C35.7301 289.931 35.0142 290.685 34.0767 291.214C33.1392 291.738 32.0057 292 30.6761 292ZM28.4134 290.274H30.5675C31.5646 290.274 32.3935 290.087 33.054 289.712C33.7145 289.332 34.2088 288.785 34.5369 288.069C34.8651 287.349 35.0291 286.471 35.0291 285.435C35.0291 284.408 34.8651 283.537 34.5369 282.821C34.2131 282.105 33.7294 281.562 33.0859 281.191C32.4425 280.82 31.6435 280.635 30.6889 280.635H28.4134V290.274ZM42.1323 292.217C41.5101 292.217 40.9476 292.102 40.4448 291.872C39.9419 291.638 39.5435 291.299 39.2495 290.856C38.9597 290.413 38.8148 289.869 38.8148 289.226C38.8148 288.672 38.9213 288.216 39.1344 287.858C39.3475 287.5 39.6351 287.217 39.9973 287.008C40.3596 286.799 40.7644 286.641 41.2118 286.535C41.6593 286.428 42.1152 286.347 42.5797 286.292C43.1678 286.224 43.6451 286.168 44.0115 286.126C44.378 286.079 44.6444 286.004 44.8105 285.902C44.9767 285.8 45.0598 285.634 45.0598 285.403V285.359C45.0598 284.8 44.9022 284.368 44.5868 284.061C44.2757 283.754 43.8113 283.601 43.1934 283.601C42.5499 283.601 42.0428 283.744 41.6721 284.029C41.3056 284.31 41.052 284.624 40.9114 284.969L39.1152 284.56C39.3283 283.963 39.6394 283.482 40.0485 283.115C40.4618 282.744 40.937 282.476 41.4739 282.31C42.0108 282.139 42.5755 282.054 43.1678 282.054C43.5598 282.054 43.9753 282.101 44.4142 282.195C44.8574 282.284 45.2708 282.45 45.6543 282.693C46.0421 282.936 46.3596 283.283 46.6067 283.735C46.8539 284.183 46.9775 284.764 46.9775 285.48V292H45.111V290.658H45.0343C44.9107 290.905 44.7253 291.148 44.4782 291.386C44.231 291.625 43.9135 291.823 43.5257 291.981C43.138 292.138 42.6735 292.217 42.1323 292.217ZM42.5478 290.683C43.0762 290.683 43.5279 290.579 43.9029 290.37C44.2821 290.161 44.5698 289.888 44.7658 289.552C44.9661 289.211 45.0662 288.847 45.0662 288.459V287.193C44.998 287.261 44.8659 287.325 44.6699 287.385C44.4782 287.44 44.2587 287.489 44.0115 287.532C43.7644 287.57 43.5236 287.607 43.2892 287.641C43.0549 287.67 42.8588 287.696 42.7012 287.717C42.3304 287.764 41.9917 287.843 41.6848 287.954C41.3823 288.065 41.1394 288.224 40.9561 288.433C40.7772 288.638 40.6877 288.911 40.6877 289.251C40.6877 289.724 40.8624 290.082 41.2118 290.325C41.5613 290.564 42.0066 290.683 42.5478 290.683ZM57.5707 282.182L54.0103 292H51.9648L48.3981 282.182H50.4499L52.9364 289.737H53.0387L55.5188 282.182H57.5707ZM59.3668 292V282.182H61.2781V292H59.3668ZM60.332 280.667C59.9996 280.667 59.7141 280.556 59.4755 280.335C59.2411 280.109 59.1239 279.84 59.1239 279.529C59.1239 279.214 59.2411 278.945 59.4755 278.724C59.7141 278.498 59.9996 278.385 60.332 278.385C60.6644 278.385 60.9478 278.498 61.1822 278.724C61.4208 278.945 61.5401 279.214 61.5401 279.529C61.5401 279.84 61.4208 280.109 61.1822 280.335C60.9478 280.556 60.6644 280.667 60.332 280.667ZM67.5247 292.192C66.7321 292.192 66.0247 291.989 65.4025 291.585C64.7846 291.175 64.2988 290.594 63.9451 289.839C63.5957 289.081 63.421 288.171 63.421 287.11C63.421 286.049 63.5978 285.141 63.9515 284.387C64.3095 283.633 64.7995 283.055 65.4217 282.655C66.0439 282.254 66.7491 282.054 67.5375 282.054C68.1468 282.054 68.6369 282.156 69.0076 282.361C69.3826 282.561 69.6724 282.795 69.877 283.064C70.0858 283.332 70.2477 283.569 70.3627 283.773H70.4778V278.909H72.389V292H70.5226V290.472H70.3627C70.2477 290.681 70.0815 290.92 69.8642 291.188C69.6511 291.457 69.3571 291.691 68.9821 291.891C68.6071 292.092 68.1213 292.192 67.5247 292.192ZM67.9466 290.562C68.4963 290.562 68.9608 290.417 69.34 290.127C69.7235 289.833 70.0133 289.426 70.2093 288.906C70.4096 288.386 70.5098 287.781 70.5098 287.091C70.5098 286.409 70.4118 285.812 70.2157 285.301C70.0197 284.79 69.7321 284.391 69.3528 284.106C68.9735 283.82 68.5048 283.678 67.9466 283.678C67.3713 283.678 66.8919 283.827 66.5083 284.125C66.1248 284.423 65.835 284.83 65.639 285.346C65.4473 285.862 65.3514 286.443 65.3514 287.091C65.3514 287.747 65.4494 288.337 65.6454 288.862C65.8414 289.386 66.1312 289.801 66.5147 290.108C66.9025 290.411 67.3798 290.562 67.9466 290.562ZM80.0339 278.909H82.4309L86.5985 289.085H86.752L90.9196 278.909H93.3166V292H91.4373V282.527H91.3159L87.4551 291.981H85.8954L82.0346 282.521H81.9132V292H80.0339V278.909ZM98.892 292.217C98.2699 292.217 97.7074 292.102 97.2045 291.872C96.7017 291.638 96.3033 291.299 96.0092 290.856C95.7195 290.413 95.5746 289.869 95.5746 289.226C95.5746 288.672 95.6811 288.216 95.8942 287.858C96.1072 287.5 96.3949 287.217 96.7571 287.008C97.1193 286.799 97.5241 286.641 97.9716 286.535C98.419 286.428 98.875 286.347 99.3395 286.292C99.9276 286.224 100.405 286.168 100.771 286.126C101.138 286.079 101.404 286.004 101.57 285.902C101.737 285.8 101.82 285.634 101.82 285.403V285.359C101.82 284.8 101.662 284.368 101.347 284.061C101.036 283.754 100.571 283.601 99.9531 283.601C99.3097 283.601 98.8026 283.744 98.4318 284.029C98.0653 284.31 97.8118 284.624 97.6712 284.969L95.875 284.56C96.0881 283.963 96.3991 283.482 96.8082 283.115C97.2216 282.744 97.6967 282.476 98.2337 282.31C98.7706 282.139 99.3352 282.054 99.9276 282.054C100.32 282.054 100.735 282.101 101.174 282.195C101.617 282.284 102.031 282.45 102.414 282.693C102.802 282.936 103.119 283.283 103.366 283.735C103.614 284.183 103.737 284.764 103.737 285.48V292H101.871V290.658H101.794C101.67 290.905 101.485 291.148 101.238 291.386C100.991 291.625 100.673 291.823 100.286 291.981C99.8977 292.138 99.4332 292.217 98.892 292.217ZM99.3075 290.683C99.8359 290.683 100.288 290.579 100.663 290.37C101.042 290.161 101.33 289.888 101.526 289.552C101.726 289.211 101.826 288.847 101.826 288.459V287.193C101.758 287.261 101.626 287.325 101.43 287.385C101.238 287.44 101.018 287.489 100.771 287.532C100.524 287.57 100.283 287.607 100.049 287.641C99.8146 287.67 99.6186 287.696 99.4609 287.717C99.0902 287.764 98.7514 287.843 98.4446 287.954C98.142 288.065 97.8991 288.224 97.7159 288.433C97.5369 288.638 97.4474 288.911 97.4474 289.251C97.4474 289.724 97.6222 290.082 97.9716 290.325C98.321 290.564 98.7663 290.683 99.3075 290.683ZM107.139 295.682C106.854 295.682 106.594 295.658 106.36 295.612C106.125 295.569 105.95 295.522 105.835 295.471L106.296 293.905C106.645 293.999 106.956 294.039 107.229 294.026C107.502 294.013 107.742 293.911 107.951 293.719C108.164 293.528 108.352 293.214 108.514 292.78L108.75 292.128L105.158 282.182H107.203L109.69 289.801H109.792L112.279 282.182H114.33L110.284 293.31C110.097 293.822 109.858 294.254 109.568 294.608C109.279 294.966 108.933 295.234 108.533 295.413C108.132 295.592 107.668 295.682 107.139 295.682ZM120.024 292.198C119.057 292.198 118.224 291.991 117.525 291.578C116.83 291.161 116.293 290.575 115.914 289.82C115.539 289.062 115.352 288.173 115.352 287.155C115.352 286.149 115.539 285.263 115.914 284.496C116.293 283.729 116.822 283.13 117.499 282.7C118.181 282.269 118.978 282.054 119.89 282.054C120.444 282.054 120.981 282.146 121.501 282.329C122.021 282.512 122.487 282.8 122.901 283.192C123.314 283.584 123.64 284.093 123.879 284.719C124.117 285.342 124.237 286.098 124.237 286.989V287.666H116.432V286.234H122.364C122.364 285.732 122.261 285.286 122.057 284.898C121.852 284.506 121.565 284.197 121.194 283.972C120.827 283.746 120.397 283.633 119.903 283.633C119.366 283.633 118.897 283.765 118.496 284.029C118.1 284.289 117.793 284.63 117.576 285.052C117.363 285.469 117.256 285.923 117.256 286.413V287.532C117.256 288.188 117.371 288.746 117.602 289.207C117.836 289.667 118.162 290.018 118.58 290.261C118.997 290.5 119.485 290.619 120.043 290.619C120.406 290.619 120.736 290.568 121.034 290.466C121.332 290.359 121.59 290.202 121.808 289.993C122.025 289.784 122.191 289.526 122.306 289.219L124.115 289.545C123.97 290.078 123.71 290.545 123.335 290.945C122.964 291.342 122.498 291.651 121.935 291.872C121.377 292.089 120.74 292.198 120.024 292.198ZM126.357 292V282.182H128.204V283.741H128.307C128.486 283.213 128.801 282.798 129.253 282.495C129.709 282.188 130.224 282.035 130.8 282.035C130.919 282.035 131.059 282.039 131.221 282.048C131.388 282.056 131.518 282.067 131.611 282.08V283.908C131.535 283.886 131.398 283.863 131.202 283.837C131.006 283.808 130.81 283.793 130.614 283.793C130.162 283.793 129.76 283.888 129.406 284.08C129.057 284.268 128.78 284.53 128.575 284.866C128.371 285.199 128.268 285.578 128.268 286.004V292H126.357Z" fill="white"/>
<path d="M26 324.5H368C377.665 324.5 385.5 332.335 385.5 342V357C385.5 366.665 377.665 374.5 368 374.5H26C16.335 374.5 8.5 366.665 8.5 357V342C8.5 332.335 16.335 324.5 26 324.5Z" fill="#373737" stroke="#C9C9C9" stroke-width="3"/>
<path d="M26.4382 357V343.909H28.4134V350.161H28.5732L34.0639 343.909H36.5504L31.2706 349.803L36.5696 357H34.1918L29.9602 351.151L28.4134 352.928V357H26.4382ZM38.7253 360.682C38.4398 360.682 38.1799 360.658 37.9455 360.612C37.7111 360.569 37.5364 360.522 37.4213 360.471L37.8816 358.905C38.231 358.999 38.5421 359.039 38.8148 359.026C39.0875 359.013 39.3283 358.911 39.5371 358.719C39.7502 358.528 39.9377 358.214 40.0996 357.78L40.3361 357.128L36.7438 347.182H38.7892L41.2757 354.801H41.378L43.8645 347.182H45.9164L41.8702 358.31C41.6827 358.822 41.4441 359.254 41.1543 359.608C40.8645 359.966 40.5194 360.234 40.1188 360.413C39.7182 360.592 39.2537 360.682 38.7253 360.682ZM49.6238 343.909V357H47.7125V343.909H49.6238ZM56.4265 357.198C55.4592 357.198 54.6261 356.991 53.9272 356.578C53.2326 356.161 52.6957 355.575 52.3164 354.82C51.9414 354.062 51.7539 353.173 51.7539 352.155C51.7539 351.149 51.9414 350.263 52.3164 349.496C52.6957 348.729 53.2241 348.13 53.9016 347.7C54.5835 347.269 55.3803 347.054 56.2923 347.054C56.8462 347.054 57.3832 347.146 57.9031 347.329C58.4229 347.512 58.8896 347.8 59.3029 348.192C59.7163 348.584 60.0423 349.093 60.2809 349.719C60.5195 350.342 60.6389 351.098 60.6389 351.989V352.666H52.8342V351.234H58.766C58.766 350.732 58.6637 350.286 58.4592 349.898C58.2546 349.506 57.967 349.197 57.5962 348.972C57.2298 348.746 56.7994 348.633 56.305 348.633C55.7681 348.633 55.2994 348.765 54.8988 349.029C54.5025 349.289 54.1957 349.63 53.9783 350.052C53.7653 350.469 53.6587 350.923 53.6587 351.413V352.532C53.6587 353.188 53.7738 353.746 54.0039 354.207C54.2383 354.667 54.5643 355.018 54.9819 355.261C55.3995 355.5 55.8874 355.619 56.4457 355.619C56.8079 355.619 57.1381 355.568 57.4364 355.466C57.7347 355.359 57.9925 355.202 58.2099 354.993C58.4272 354.784 58.5934 354.526 58.7085 354.219L60.5174 354.545C60.3725 355.078 60.1126 355.545 59.7376 355.945C59.3668 356.342 58.9002 356.651 58.3377 356.872C57.7795 357.089 57.1424 357.198 56.4265 357.198ZM67.6765 357V343.909H69.6516V349.598H76.1779V343.909H78.1594V357H76.1779V351.292H69.6516V357H67.6765ZM85.114 357.198C84.1467 357.198 83.3136 356.991 82.6147 356.578C81.9201 356.161 81.3832 355.575 81.0039 354.82C80.6289 354.062 80.4414 353.173 80.4414 352.155C80.4414 351.149 80.6289 350.263 81.0039 349.496C81.3832 348.729 81.9116 348.13 82.5891 347.7C83.271 347.269 84.0678 347.054 84.9798 347.054C85.5337 347.054 86.0707 347.146 86.5906 347.329C87.1104 347.512 87.5771 347.8 87.9904 348.192C88.4038 348.584 88.7298 349.093 88.9684 349.719C89.207 350.342 89.3264 351.098 89.3264 351.989V352.666H81.5217V351.234H87.4535C87.4535 350.732 87.3512 350.286 87.1467 349.898C86.9421 349.506 86.6545 349.197 86.2837 348.972C85.9173 348.746 85.4869 348.633 84.9925 348.633C84.4556 348.633 83.9869 348.765 83.5863 349.029C83.19 349.289 82.8832 349.63 82.6658 350.052C82.4528 350.469 82.3462 350.923 82.3462 351.413V352.532C82.3462 353.188 82.4613 353.746 82.6914 354.207C82.9258 354.667 83.2518 355.018 83.6694 355.261C84.087 355.5 84.5749 355.619 85.1332 355.619C85.4954 355.619 85.8256 355.568 86.1239 355.466C86.4222 355.359 86.68 355.202 86.8974 354.993C87.1147 354.784 87.2809 354.526 87.396 354.219L89.2049 354.545C89.06 355.078 88.8001 355.545 88.4251 355.945C88.0543 356.342 87.5877 356.651 87.0252 356.872C86.467 357.089 85.8299 357.198 85.114 357.198ZM93.3581 343.909V357H91.4469V343.909H93.3581ZM100.161 357.198C99.1935 357.198 98.3604 356.991 97.6616 356.578C96.967 356.161 96.43 355.575 96.0508 354.82C95.6758 354.062 95.4883 353.173 95.4883 352.155C95.4883 351.149 95.6758 350.263 96.0508 349.496C96.43 348.729 96.9585 348.13 97.636 347.7C98.3178 347.269 99.1147 347.054 100.027 347.054C100.581 347.054 101.118 347.146 101.637 347.329C102.157 347.512 102.624 347.8 103.037 348.192C103.451 348.584 103.777 349.093 104.015 349.719C104.254 350.342 104.373 351.098 104.373 351.989V352.666H96.5685V351.234H102.5C102.5 350.732 102.398 350.286 102.194 349.898C101.989 349.506 101.701 349.197 101.331 348.972C100.964 348.746 100.534 348.633 100.039 348.633C99.5025 348.633 99.0337 348.765 98.6332 349.029C98.2369 349.289 97.93 349.63 97.7127 350.052C97.4996 350.469 97.3931 350.923 97.3931 351.413V352.532C97.3931 353.188 97.5082 353.746 97.7383 354.207C97.9727 354.667 98.2987 355.018 98.7163 355.261C99.1339 355.5 99.6218 355.619 100.18 355.619C100.542 355.619 100.873 355.568 101.171 355.466C101.469 355.359 101.727 355.202 101.944 354.993C102.162 354.784 102.328 354.526 102.443 354.219L104.252 354.545C104.107 355.078 103.847 355.545 103.472 355.945C103.101 356.342 102.635 356.651 102.072 356.872C101.514 357.089 100.877 357.198 100.161 357.198ZM108.405 351.17V357H106.494V347.182H108.328V348.78H108.45C108.676 348.26 109.029 347.842 109.511 347.527C109.997 347.212 110.608 347.054 111.345 347.054C112.014 347.054 112.6 347.195 113.103 347.476C113.606 347.753 113.996 348.166 114.273 348.716C114.55 349.266 114.688 349.945 114.688 350.755V357H112.777V350.985C112.777 350.273 112.592 349.717 112.221 349.317C111.85 348.912 111.341 348.71 110.693 348.71C110.25 348.71 109.856 348.805 109.511 348.997C109.17 349.189 108.899 349.47 108.699 349.841C108.503 350.207 108.405 350.651 108.405 351.17Z" fill="white"/>
<path d="M27 385.5H369C378.665 385.5 386.5 393.335 386.5 403V418C386.5 427.665 378.665 435.5 369 435.5H27C17.335 435.5 9.5 427.665 9.5 418V403C9.5 393.335 17.335 385.5 27 385.5Z" fill="#373737" stroke="#C9C9C9" stroke-width="3"/>
<path d="M26.4382 402.909H28.8352L33.0028 413.085H33.1562L37.3239 402.909H39.7209V416H37.8416V406.527H37.7202L33.8594 415.981H32.2997L28.4389 406.521H28.3175V416H26.4382V402.909ZM42.4391 416V406.182H44.3503V416H42.4391ZM43.4043 404.667C43.0719 404.667 42.7864 404.556 42.5478 404.335C42.3134 404.109 42.1962 403.84 42.1962 403.529C42.1962 403.214 42.3134 402.945 42.5478 402.724C42.7864 402.498 43.0719 402.385 43.4043 402.385C43.7367 402.385 44.0201 402.498 44.2544 402.724C44.4931 402.945 44.6124 403.214 44.6124 403.529C44.6124 403.84 44.4931 404.109 44.2544 404.335C44.0201 404.556 43.7367 404.667 43.4043 404.667ZM46.9215 416V406.182H48.7688V407.741H48.8711C49.0501 407.213 49.3654 406.798 49.8171 406.495C50.2731 406.188 50.7887 406.035 51.364 406.035C51.4833 406.035 51.6239 406.039 51.7859 406.048C51.9521 406.056 52.082 406.067 52.1758 406.08V407.908C52.0991 407.886 51.9627 407.863 51.7667 407.837C51.5707 407.808 51.3746 407.793 51.1786 407.793C50.7269 407.793 50.3242 407.888 49.9705 408.08C49.6211 408.268 49.3441 408.53 49.1396 408.866C48.935 409.199 48.8327 409.578 48.8327 410.004V416H46.9215ZM56.5991 416.217C55.9769 416.217 55.4144 416.102 54.9116 415.872C54.4087 415.638 54.0103 415.299 53.7163 414.856C53.4265 414.413 53.2816 413.869 53.2816 413.226C53.2816 412.672 53.3881 412.216 53.6012 411.858C53.8143 411.5 54.1019 411.217 54.4641 411.008C54.8263 410.799 55.2312 410.641 55.6786 410.535C56.1261 410.428 56.582 410.347 57.0465 410.292C57.6346 410.224 58.1119 410.168 58.4783 410.126C58.8448 410.079 59.1112 410.004 59.2773 409.902C59.4435 409.8 59.5266 409.634 59.5266 409.403V409.359C59.5266 408.8 59.369 408.368 59.0536 408.061C58.7425 407.754 58.2781 407.601 57.6602 407.601C57.0167 407.601 56.5096 407.744 56.1388 408.029C55.7724 408.31 55.5188 408.624 55.3782 408.969L53.582 408.56C53.7951 407.963 54.1062 407.482 54.5153 407.115C54.9286 406.744 55.4038 406.476 55.9407 406.31C56.4776 406.139 57.0423 406.054 57.6346 406.054C58.0266 406.054 58.4421 406.101 58.881 406.195C59.3242 406.284 59.7376 406.45 60.1211 406.693C60.5089 406.936 60.8263 407.283 61.0735 407.735C61.3207 408.183 61.4442 408.764 61.4442 409.48V416H59.5778V414.658H59.5011C59.3775 414.905 59.1921 415.148 58.945 415.386C58.6978 415.625 58.3803 415.823 57.9925 415.981C57.6048 416.138 57.1403 416.217 56.5991 416.217ZM57.0146 414.683C57.543 414.683 57.9947 414.579 58.3697 414.37C58.7489 414.161 59.0366 413.888 59.2326 413.552C59.4329 413.211 59.533 412.847 59.533 412.459V411.193C59.4648 411.261 59.3327 411.325 59.1367 411.385C58.945 411.44 58.7255 411.489 58.4783 411.532C58.2312 411.57 57.9904 411.607 57.756 411.641C57.5217 411.67 57.3256 411.696 57.168 411.717C56.7972 411.764 56.4585 411.843 56.1516 411.954C55.8491 412.065 55.6062 412.224 55.4229 412.433C55.244 412.638 55.1545 412.911 55.1545 413.251C55.1545 413.724 55.3292 414.082 55.6786 414.325C56.0281 414.564 56.4734 414.683 57.0146 414.683ZM68.907 416V402.909H70.8821V409.161H71.0419L76.5327 402.909H79.0192L73.7393 408.803L79.0384 416H76.6605L72.429 410.151L70.8821 411.928V416H68.907ZM83.5639 416.217C82.9418 416.217 82.3793 416.102 81.8764 415.872C81.3736 415.638 80.9751 415.299 80.6811 414.856C80.3913 414.413 80.2464 413.869 80.2464 413.226C80.2464 412.672 80.353 412.216 80.5661 411.858C80.7791 411.5 81.0668 411.217 81.429 411.008C81.7912 410.799 82.196 410.641 82.6435 410.535C83.0909 410.428 83.5469 410.347 84.0114 410.292C84.5994 410.224 85.0767 410.168 85.4432 410.126C85.8097 410.079 86.076 410.004 86.2422 409.902C86.4084 409.8 86.4915 409.634 86.4915 409.403V409.359C86.4915 408.8 86.3338 408.368 86.0185 408.061C85.7074 407.754 85.2429 407.601 84.625 407.601C83.9815 407.601 83.4744 407.744 83.1037 408.029C82.7372 408.31 82.4837 408.624 82.343 408.969L80.5469 408.56C80.7599 407.963 81.071 407.482 81.4801 407.115C81.8935 406.744 82.3686 406.476 82.9055 406.31C83.4425 406.139 84.0071 406.054 84.5994 406.054C84.9915 406.054 85.407 406.101 85.8459 406.195C86.2891 406.284 86.7024 406.45 87.0859 406.693C87.4737 406.936 87.7912 407.283 88.0384 407.735C88.2855 408.183 88.4091 408.764 88.4091 409.48V416H86.5426V414.658H86.4659C86.3423 414.905 86.157 415.148 85.9098 415.386C85.6626 415.625 85.3452 415.823 84.9574 415.981C84.5696 416.138 84.1051 416.217 83.5639 416.217ZM83.9794 414.683C84.5078 414.683 84.9595 414.579 85.3345 414.37C85.7138 414.161 86.0014 413.888 86.1974 413.552C86.3977 413.211 86.4979 412.847 86.4979 412.459V411.193C86.4297 411.261 86.2976 411.325 86.1016 411.385C85.9098 411.44 85.6903 411.489 85.4432 411.532C85.196 411.57 84.9553 411.607 84.7209 411.641C84.4865 411.67 84.2905 411.696 84.1328 411.717C83.7621 411.764 83.4233 411.843 83.1165 411.954C82.8139 412.065 82.571 412.224 82.3878 412.433C82.2088 412.638 82.1193 412.911 82.1193 413.251C82.1193 413.724 82.294 414.082 82.6435 414.325C82.9929 414.564 83.4382 414.683 83.9794 414.683ZM92.8659 410.17V416H90.9547V406.182H92.7892V407.78H92.9107C93.1365 407.26 93.4902 406.842 93.9718 406.527C94.4576 406.212 95.0691 406.054 95.8063 406.054C96.4753 406.054 97.0613 406.195 97.5641 406.476C98.0669 406.753 98.4569 407.166 98.7338 407.716C99.0108 408.266 99.1493 408.945 99.1493 409.755V416H97.2381V409.985C97.2381 409.273 97.0527 408.717 96.682 408.317C96.3113 407.912 95.802 407.71 95.1543 407.71C94.7111 407.71 94.3169 407.805 93.9718 407.997C93.6309 408.189 93.3603 408.47 93.16 408.841C92.964 409.207 92.8659 409.651 92.8659 410.17Z" fill="white"/>
<rect opacity="0.5" x="392" y="368" width="107" height="3" rx="1.5" transform="rotate(-90 392 368)" fill="#E3E3E3"/>
</g>
<defs>
<clipPath id="clip0_2049_293">
<rect width="402" height="874" fill="white"/>
</clipPath>
</defs>
</svg>
